<svg width="16" height="16" viewBox="0 0 16 16" fill="none" xmlns="http://www.w3.org/2000/svg">
  <style>
    path {
      fill: black;
    }
    @media (prefers-color-scheme: dark) {
      path {
        fill: white;
      }
    }
  </style>
  <g clip-path="url(#clip0_favicon)">
    <path d="M1.96587 13.3947L0.8328 11.8363H0.101867C0.0456 11.8363 0 11.8819 0 11.9382V15.5979H0.868V13.3478L1.96587 14.7611L3.06373 13.3478V15.5979H3.93173V11.8366H3.09813L1.96587 13.3947Z" />
    <path d="M8.48987 12.6307H9.4424V15.5976H10.3341V12.6307H11.272V11.8363H8.59173C8.53547 11.8363 8.48987 11.8819 8.48987 11.9382V12.6307Z" />
    <path d="M11.7803 15.5976H12.672V11.8363H11.8821C11.8259 11.8363 11.7803 11.8819 11.7803 11.9382V15.5976Z" />
    <path d="M16 11.8363H13.4835C13.4272 11.8363 13.3816 11.8819 13.3816 11.9382V15.5979H14.2733V14.207H15.7901V13.4126H14.2733V12.6312H16V11.8363Z" />
    <path d="M6.41947 11.7267C5.32213 11.7267 4.42933 12.6195 4.42933 13.7168C4.42933 14.8142 5.32213 15.707 6.41947 15.707C7.5168 15.707 8.4096 14.8142 8.4096 13.7168C8.4096 12.6195 7.5168 11.7267 6.41947 11.7267ZM7.55707 13.7168C7.55707 14.344 7.04667 14.8544 6.41947 14.8544C5.79227 14.8544 5.28187 14.344 5.28187 13.7168C5.28187 13.0896 5.79227 12.5792 6.41947 12.5792C7.04667 12.5792 7.55707 13.0896 7.55707 13.7168Z" />
    <path d="M0.980776 5.50784H4.39971V9.95104H0.0999756V6.38864C0.0999756 5.90251 0.494642 5.50784 0.980776 5.50784Z" />
    <path d="M0.697309 0.349976H4.91491C5.38451 0.349976 5.82424 0.580642 6.09091 0.967309L12.2909 9.95104H7.40024C7.35198 9.95104 7.30691 9.92731 7.27944 9.88758L0.697309 0.349976Z" />
    <path d="M12.8192 0.349976H15.9168V9.95104H11.8328V1.33638C11.833 0.791842 12.2749 0.349976 12.8192 0.349976Z" />
  </g>
  <defs>
    <clipPath id="clip0_favicon">
      <rect width="16" height="16" fill="white" />
    </clipPath>
  </defs>
</svg>
