<svg xmlns="http://www.w3.org/2000/svg" fill="none" viewBox="0 0 88 24" height="24" width="88">
<g clip-path="url(#clip0_2915_4043)">
<path fill="#4B5158" d="M52.4771 0C52.4704 0.233951 52.4854 0.469572 52.4771 0.701852C52.32 5.81535 52.5055 10.9606 52.4369 16.0824C52.1445 19.9142 48.8508 22.9706 45.2196 23.7711C40.0158 24.9191 34.2673 21.6321 33.6323 16.1627V0H52.4754H52.4771Z"></path>
<path fill="#4B5158" d="M24.4982 6.06879C24.6503 6.03704 24.8408 5.83819 24.9143 5.84487C24.9327 5.84654 25.0029 6.05375 25.1984 6.0855C25.3972 6.11558 25.6563 6.09219 25.8434 6.02033L27.1419 6.04707C27.212 5.80978 26.9831 5.90169 26.9196 5.80811C26.8461 5.69781 26.8227 5.12464 27.0015 5.12631C27.0566 5.12631 27.5112 5.94179 27.6031 6.04707H28.5439C28.6007 5.80811 28.3734 5.89166 28.223 5.74628C27.9791 5.51065 27.7702 4.9592 27.5078 4.69851C27.4961 4.62666 27.8186 4.41443 27.8905 4.37265C28.0075 4.30581 28.2932 4.22058 28.3434 4.18382C28.4002 4.14204 28.3851 4.10528 28.3835 4.04512H27.3424C27.2806 4.24064 27.558 4.18048 27.5813 4.2657C27.6198 4.39939 27.0382 4.85392 26.9213 4.96588C26.9096 4.9709 26.8611 4.87063 26.8611 4.86562V2.92383H25.9988C25.9888 2.92383 25.8284 2.96059 25.8217 2.96728C25.8133 2.97563 25.8133 3.11767 25.8184 3.12269C25.8585 3.16279 26.1609 3.03579 26.2161 3.42682C26.2796 3.88135 26.2645 5.11294 26.2211 5.5892C26.1843 5.98858 25.6964 5.92007 25.5811 5.74293C25.3772 5.42376 25.7615 4.59323 25.4173 4.18382C25.1416 3.85629 23.9818 3.91143 23.778 4.26904C23.4855 4.78708 24.3211 4.86395 24.4063 4.57652C24.4614 4.39103 24.2609 4.18549 24.5249 4.13202C24.8826 4.06016 24.9026 4.48461 24.8976 4.73862C24.5166 4.95084 23.7078 4.9475 23.6226 5.47556C23.5373 6.01699 24.0554 6.16237 24.4982 6.06879ZM24.5066 5.11628C24.5534 5.08286 24.8658 4.93246 24.8959 4.96588C24.8892 5.16641 24.9594 5.68278 24.7071 5.75797C24.276 5.88665 24.2125 5.32684 24.5066 5.11628Z"></path>
<path fill="#4B5158" d="M13.3969 8.158L12.4043 10.5694C12.3475 10.6362 12.2773 10.7248 12.2021 10.7682C12.04 10.8618 11.8528 10.7883 11.9063 11.0139H13.1095C13.1512 10.7365 12.9524 10.8534 12.7986 10.7849C12.5613 10.678 12.8304 10.2452 12.8638 10.0764C13.0176 10.0513 13.8247 10.0129 13.8915 10.0931C13.9133 10.1182 14.1455 10.673 14.1455 10.7147C14.1355 10.8601 13.5891 10.7498 13.7111 11.0139H16.4366C16.5335 10.7849 16.1157 10.8317 16.1157 10.6329V7.89062H15.2952C15.2835 7.89062 15.083 7.92238 15.0746 7.93073C15.0696 7.93574 15.068 8.04102 15.073 8.06943C15.078 8.10786 15.4256 8.05606 15.4724 8.39362C15.5325 8.81974 15.5258 10.1566 15.4757 10.5944C15.4373 10.937 15.063 10.8618 14.8958 10.6512L13.8665 8.0945C13.7294 8.10452 13.4771 8.03267 13.3969 8.158ZM13.7512 9.85247H12.9891L13.3702 8.85149C13.5089 9.17735 13.676 9.50656 13.7512 9.85247Z"></path>
<path fill="#4B5158" d="M10.9556 10.7827C10.9255 10.7693 10.8252 10.6891 10.8252 10.6724V8.96958C10.6832 9.01303 9.81925 8.97125 9.78249 9.00969C9.77748 9.0147 9.77915 9.16009 9.78583 9.16677C9.81758 9.20186 10.0967 9.11998 10.1418 9.39237C10.1635 9.52605 10.1668 10.3967 10.1351 10.5036C10.0449 10.8111 9.42154 10.8328 9.42154 10.4719V8.96958C9.16921 9.02807 8.65451 8.95454 8.44563 9.00969C8.40385 9.02139 8.43393 9.10327 8.40051 9.0899C8.08134 8.81417 7.70701 9.00468 7.43797 9.25032C7.38784 9.25032 7.43797 8.98797 7.41792 8.96958C7.38283 8.93449 6.54896 9.05815 6.41527 9.00969C6.35678 9.25701 6.59742 9.14338 6.71272 9.33388C6.80797 9.49263 6.82301 10.6875 6.69434 10.7911C6.58238 10.883 6.39689 10.7677 6.45538 11.0116H7.81898C7.81229 10.9715 7.83234 10.8713 7.81731 10.8546C7.80227 10.8378 7.48309 10.8546 7.42794 10.6641C7.40288 10.5755 7.40288 9.60626 7.42794 9.51937C7.45635 9.42245 7.66858 9.26703 7.78054 9.29043C7.69197 10.0207 8.62611 9.85191 8.46234 9.17011C8.4991 9.13001 8.713 9.28709 8.73473 9.35894C8.8116 9.61963 8.70298 10.1928 8.74642 10.5086C8.84669 11.2389 9.75241 11.1921 10.1451 10.7326C10.1551 10.786 10.1317 10.9999 10.1451 11.0133C10.1952 11.0634 11.0057 10.9298 11.1478 10.9732C11.1812 10.7409 11.0993 10.8479 10.9573 10.7827H10.9556Z"></path>
<path fill="#4B5158" d="M19.124 10.9738C19.1641 10.7365 19.0538 10.8518 18.9067 10.7699C18.8683 10.7482 18.763 10.6245 18.763 10.5928V7.89062L17.64 7.93073C17.5949 8.16802 17.7269 8.0594 17.9041 8.12792C18.1965 8.23988 18.1029 8.79133 18.1213 9.05202C17.2407 8.70945 16.4837 9.18738 16.5555 10.1549C16.6173 10.9654 17.4763 11.3631 18.1013 10.8133C18.1531 10.8434 18.1013 10.9938 18.1213 11.0139C18.1698 11.064 18.9819 10.9303 19.124 10.9738ZM18.0729 10.6462C18.0662 10.6563 17.8807 10.7599 17.8523 10.7665C17.1705 10.922 17.1538 9.6486 17.4796 9.27093C17.6334 9.09213 17.9893 9.12889 18.0628 9.36953C18.0946 9.47146 18.1046 10.5911 18.0729 10.6462Z"></path>
<path fill="#4B5158" d="M9.37489 5.80139C9.42502 5.59251 9.28632 5.04941 9.48852 4.9341C9.63725 4.85055 9.79099 4.97254 9.74086 4.72689H8.25694C8.20514 4.97588 8.37391 4.84721 8.54938 4.93577C8.73821 5.03103 8.73152 5.48556 8.6981 5.6677C8.66635 5.83314 8.33548 5.91168 8.19177 5.91335C7.34286 5.93006 7.28103 4.57983 7.42809 3.9983C7.6353 3.17613 8.45245 3.01069 8.89195 3.75432C8.95712 3.86461 9.04569 4.18713 9.06407 4.20217C9.09081 4.2239 9.21112 4.19716 9.26126 4.20551V3.16443C9.13593 3.11931 9.01227 3.23796 8.92203 3.2413C8.81675 3.24297 8.52431 3.10762 8.35553 3.08923C7.56177 3.00735 6.70284 3.42345 6.58753 4.2757C6.34021 6.10386 8.01129 6.48486 9.37656 5.80139H9.37489Z"></path>
<path fill="#4B5158" d="M27.222 10.9738C27.2621 10.7365 27.1518 10.8518 27.0048 10.7699C26.9663 10.7482 26.8611 10.6245 26.8611 10.5928V7.89062C26.724 7.8923 25.7765 7.89062 25.7381 7.93073C25.7331 7.93574 25.7331 8.0828 25.7381 8.08948C25.7598 8.11121 26.2194 8.0828 26.2194 8.39028V9.05202C25.3337 8.69107 24.5583 9.22247 24.6569 10.1934C24.7355 10.9804 25.6011 11.3531 26.1993 10.8133C26.2511 10.8434 26.1993 10.9938 26.2194 11.0139C26.2678 11.064 27.08 10.9303 27.222 10.9738ZM26.1793 10.5944C26.1609 10.688 26.0055 10.7615 25.9152 10.7732C25.185 10.8585 25.2685 9.28597 25.7264 9.1807C25.9453 9.13056 26.1392 9.20075 26.1776 9.4347C26.2043 9.60348 26.2094 10.4357 26.1776 10.5944H26.1793Z"></path>
<path fill="#4B5158" d="M11.3849 4.42648C11.3247 5.10661 11.4668 5.92711 11.3882 6.59052C11.3565 6.84954 11.0574 6.73591 11.0239 6.76933C11.0189 6.77434 11.0173 6.92808 11.0239 6.92808H12.5062C12.5513 6.68912 12.4193 6.80108 12.2422 6.7309C12.2004 6.71418 12.065 6.61392 12.065 6.58885V5.96721C12.6215 6.25631 13.3434 6.03406 13.5389 5.41743C13.8547 4.43316 12.9657 3.47564 12.0851 4.24433C12.0316 4.2059 12.0901 4.02876 12.065 4.00537C12.0199 3.95858 11.2027 4.09059 11.0624 4.04548C10.9888 4.30616 11.3364 4.17749 11.3832 4.42648H11.3849ZM12.0684 4.50669C12.0867 4.41144 12.2037 4.31452 12.2956 4.29279C12.949 4.14574 12.9407 5.22024 12.7802 5.61796C12.6232 6.01233 12.1269 5.9505 12.07 5.58454C12.0433 5.42077 12.0383 4.66043 12.07 4.50669H12.0684Z"></path>
<path fill="#4B5158" d="M18.8014 3.46387C18.8532 3.9301 18.8565 5.16335 18.8014 5.62791C18.7579 6.00056 18.4304 5.74154 18.4805 6.04735H19.7639C19.8207 5.8017 19.6369 5.91868 19.5249 5.82677C19.3963 5.71982 19.4096 5.23187 19.5834 5.12826L20.185 6.04902H21.1275C21.186 5.80672 20.9604 5.89863 20.83 5.76661L20.0898 4.70214C20.0764 4.63195 20.4039 4.41638 20.4758 4.3746C20.5928 4.30776 20.8785 4.22254 20.9286 4.18577C20.9855 4.144 20.9704 4.10723 20.9687 4.04707H19.926C19.8642 4.24259 20.1432 4.18243 20.1666 4.26766C20.2017 4.39132 19.6285 4.86757 19.5049 4.96784C19.4932 4.97285 19.4447 4.87426 19.4447 4.86757V2.92578H18.5824C18.4805 2.92578 18.3752 3.05111 18.4437 3.12464C18.4956 3.17978 18.7562 3.04944 18.803 3.46721L18.8014 3.46387Z"></path>
<path fill="#4B5158" d="M2.40454 10.6745V9.61339C2.65018 9.62007 2.94931 9.59668 3.09469 9.82561C3.19161 9.97768 3.14148 10.1916 3.36708 10.1348V8.93326C3.14148 8.87978 3.21501 9.06694 3.11976 9.22737C2.96936 9.48639 2.66857 9.45798 2.40454 9.45296V8.33167H3.1866C3.2384 8.33167 3.36373 8.42859 3.40885 8.47037C3.56593 8.61742 3.61941 8.92992 3.84835 8.89315V8.13281H1.28324C1.22141 8.44697 1.62749 8.2147 1.68096 8.5556C1.63751 9.19729 1.7478 9.92922 1.68597 10.5575C1.6442 10.9837 1.2398 10.6678 1.28324 11.0154H2.80726C2.92758 10.7731 2.40621 10.8232 2.40621 10.6745H2.40454Z"></path>
<path fill="#4B5158" d="M24.3124 10.7766C24.0868 10.5794 24.5296 9.33777 23.9481 9.01692C23.5938 8.82141 23.1359 8.9835 22.8702 9.25087C22.8184 9.17233 22.8986 9.01358 22.785 8.97682C22.5895 8.91164 22.0898 9.07875 21.8475 9.01191C21.7823 9.2726 22.1049 9.15562 22.16 9.40127C22.2018 9.5901 22.1918 10.3788 22.1717 10.5961C22.14 10.9253 21.8943 10.81 21.8509 10.8568C21.8458 10.8618 21.8425 11.0088 21.8492 11.0139C21.8926 11.059 22.9337 10.9804 23.0925 11.0139C23.161 10.7749 22.8919 10.8735 22.8535 10.673C22.8284 10.5393 22.8284 9.68702 22.8535 9.55334C22.907 9.26925 23.5203 9.07207 23.5754 9.67031C23.5938 9.87586 23.6072 10.5292 23.5754 10.7131C23.5403 10.9052 23.2613 10.7599 23.3348 11.0139H24.538C24.5931 10.7799 24.4226 10.8701 24.314 10.7766H24.3124Z"></path>
<path fill="#4B5158" d="M13.9835 4.39424C14.1038 4.80533 13.7495 5.94166 14.4213 6.07869C14.7973 6.15556 15.1365 6.04025 15.3939 5.76787C15.4039 5.82134 15.3805 6.03524 15.3939 6.04861C15.439 6.09373 16.2562 5.96171 16.3965 6.0085C16.5068 5.77288 16.0757 5.83137 16.0757 5.70771V4.00488C15.9336 4.04332 15.0697 4.00655 15.0329 4.04499C15.0279 4.05 15.0279 4.19873 15.0329 4.20374C15.0547 4.22546 15.3287 4.1486 15.3855 4.39424C15.4123 4.50955 15.4156 5.43867 15.3855 5.53893C15.297 5.84307 14.672 5.85644 14.672 5.50718V4.00488L13.6693 4.04499C13.5925 4.28729 13.92 4.18369 13.9818 4.39424H13.9835Z"></path>
<path fill="#4B5158" d="M21.809 10.9731C21.8424 10.7408 21.7606 10.8477 21.6185 10.7826C21.5884 10.7692 21.4882 10.689 21.4882 10.6723V8.96944C21.3461 9.01289 20.4822 8.97112 20.4454 9.00955C20.4404 9.01456 20.4421 9.16162 20.4471 9.16663C20.4621 9.18167 20.7429 9.1683 20.798 9.35713C20.8231 9.44403 20.8231 10.4149 20.798 10.5018C20.7412 10.699 20.3351 10.831 20.1747 10.6806C20.168 10.6739 20.0845 10.5202 20.0845 10.5102V8.96777L19.0818 9.00788C19.005 9.25854 19.3358 9.15326 19.3943 9.35713C19.4712 9.62116 19.3626 10.1893 19.406 10.5068C19.5063 11.2404 20.4087 11.1836 20.8047 10.7308C20.8147 10.7842 20.7913 10.9981 20.8047 11.0115C20.8548 11.0616 21.6653 10.9279 21.8074 10.9714L21.809 10.9731Z"></path>
<path fill="#4B5158" d="M30.9502 10.8133C30.8215 10.8316 30.6394 10.8116 30.5976 10.6645C30.4823 10.2652 30.768 9.41624 30.4255 9.11378C30.1481 8.86646 29.478 8.90155 29.1471 9.0319C28.4553 9.30261 28.8262 9.90253 29.3159 9.68194C29.6517 9.52821 29.2156 9.02688 29.6768 9.09874C29.9208 9.13717 30.0327 9.58502 29.9425 9.72706C29.8422 9.88247 28.7677 9.84905 28.6742 10.444C28.5789 11.0455 29.2507 11.1943 29.6952 10.982C29.762 10.9503 29.874 10.8183 29.9275 10.8233C29.9709 10.8266 30.0846 11.0054 30.1865 11.0355C30.3068 11.074 30.8867 11.0639 30.9435 10.9687C30.9652 10.9319 30.9435 10.8601 30.9502 10.8133ZM29.8857 10.6127C29.8122 10.7798 29.4512 10.7849 29.4044 10.6177C29.2875 10.2016 29.5849 9.99778 29.9475 9.93261C29.8539 10.1281 29.9626 10.4406 29.8857 10.6127Z"></path>
<path fill="#4B5158" d="M4.90939 11.0554C5.53103 11.1089 6.19779 10.8866 6.29137 10.1898C6.40667 9.3158 5.73824 8.8479 4.92275 8.94148C3.58589 9.09689 3.64605 10.9451 4.90939 11.0554ZM4.99962 9.14034C5.62795 8.99662 5.57113 9.95749 5.5327 10.3519C5.45249 11.1473 4.75899 11.0754 4.69047 10.2315C4.66875 9.9625 4.67376 9.21553 4.99962 9.14034Z"></path>
<path fill="#4B5158" d="M30.8281 5.18484C30.9166 4.30752 30.2799 3.87973 29.4578 3.97498C28.7225 4.0602 28.3599 4.64675 28.532 5.35863C28.7827 6.40138 30.7111 6.35459 30.8281 5.18484ZM29.6533 4.13707C29.7653 4.13039 29.8956 4.20392 29.9558 4.29583C30.1396 4.56988 30.1546 5.65775 29.8672 5.86664C29.1403 6.3947 28.9581 4.1705 29.6533 4.13707Z"></path>
<path fill="#4B5158" d="M23.4082 5.26345C23.5335 4.35271 22.9052 3.87479 22.0413 3.97505C21.306 4.06028 20.9434 4.64682 21.1155 5.3587C21.3678 6.40814 23.2645 6.31456 23.4082 5.26345ZM22.2368 4.13714C22.7582 4.11041 22.7097 5.12976 22.6462 5.46231C22.5292 6.06557 21.9962 6.10233 21.8591 5.53584C21.7772 5.19661 21.7438 4.16054 22.2368 4.13714Z"></path>
<path fill="#4B5158" d="M18.4418 5.28653C18.1477 5.19796 18.2162 5.84801 17.9405 5.84801H17.2386L18.3549 4.21871L18.4017 4.04492H16.5167V4.68494C16.7407 4.73508 16.6671 4.57298 16.749 4.4159C16.851 4.22039 17.0515 4.21036 17.2554 4.202C17.3172 4.19866 17.5946 4.16858 17.5578 4.26383L16.4733 5.82295L16.4365 6.04687H18.4418V5.28653Z"></path>
<path fill="#4B5158" d="M10.065 4.46345C10.0833 4.60215 10.085 5.70005 10.0566 5.78193C10.0098 5.91896 9.69733 5.7953 9.78088 6.04763H11.0643C11.1746 5.83875 10.7434 5.83708 10.7434 5.70673V4.00391L9.74078 4.04401C9.67895 4.32308 10.0249 4.1543 10.0633 4.46178L10.065 4.46345Z"></path>
<path fill="#4B5158" d="M27.2601 11.0135H28.5435C28.6404 10.7845 28.2227 10.8313 28.2227 10.6324V8.96973L27.22 9.00983C27.1565 9.27052 27.4841 9.14686 27.5626 9.40755C27.601 9.53455 27.6044 10.5222 27.5726 10.6625C27.5075 10.9433 27.1916 10.7327 27.2601 11.0118V11.0135Z"></path>
<path fill="#4B5158" d="M23.6722 19.7051C23.5219 19.3859 23.0857 19.3742 22.9102 19.6666C22.8384 19.4193 22.8284 19.4544 22.5693 19.4661V20.7879H22.8902V19.9674C22.8902 19.7318 23.3715 19.6533 23.3715 19.8471V20.7879H23.6923V20.0075C23.6923 19.7134 24.2137 19.6533 24.2137 19.8872V20.7879H24.5345V19.7669C24.5345 19.7535 24.4226 19.5697 24.3958 19.5446C24.1803 19.3541 23.8176 19.4828 23.6722 19.7051Z"></path>
<path fill="#4B5158" d="M14.8877 19.1514C14.8526 19.128 14.6304 19.0244 14.6137 19.0244H13.7915V20.7857H14.5736C14.5953 20.7857 14.7691 20.7189 14.8075 20.7005C15.3523 20.4381 15.3807 19.4739 14.8877 19.1514ZM14.1124 20.5067V19.3052C14.4499 19.2834 14.7641 19.265 14.856 19.6628C14.9863 20.2192 14.6939 20.6086 14.1124 20.5067Z"></path>
<path fill="#4B5158" d="M7.81725 13.5575V14.4582H8.1381V13.5976C8.1381 13.3737 8.61937 13.3403 8.61937 13.5174V14.4582H8.94022V13.3971C8.94022 13.372 8.83327 13.2417 8.79985 13.2166C8.58261 13.0462 8.23001 13.128 8.11638 13.377C8.02781 13.4021 8.04953 13.2216 7.92754 13.1665C7.70863 13.0662 7.4045 13.1464 7.31593 13.377C7.2658 13.3754 7.31593 13.1564 7.29588 13.1364C7.28251 13.123 7.07028 13.1464 7.01514 13.1364V14.4582H7.29588V13.6778C7.29588 13.3837 7.81725 13.3235 7.81725 13.5575Z"></path>
<path fill="#4B5158" d="M21.1193 17.5311C20.9939 17.115 20.1651 17.461 20.1634 17.1618C20.1634 16.9981 20.5611 17.08 20.6981 17.0532C21.0324 16.9847 21.1226 16.607 20.8485 16.4015C20.8853 16.2762 21.1159 16.3113 21.1276 16.3012C21.141 16.2895 21.1193 16.1107 21.1276 16.0606C20.8669 15.9353 20.7266 16.2962 20.6998 16.3029C20.4943 16.353 20.2687 16.2193 20.0464 16.4032C19.7473 16.6505 20.0531 16.9296 20.0414 16.9964C20.0331 17.0482 19.9127 17.0983 19.891 17.1719C19.8476 17.3172 19.9712 17.4125 19.9595 17.476C19.9478 17.5362 19.8108 17.5963 19.8091 17.7216C19.7991 18.2932 21.3248 18.2113 21.1193 17.5311ZM20.3539 16.5101C20.76 16.3881 20.8201 16.9045 20.4659 16.9045C20.1784 16.9045 20.1818 16.5619 20.3539 16.5101ZM20.8435 17.7551C20.7917 17.964 19.8559 17.9088 20.1433 17.5529C20.2837 17.6348 20.912 17.476 20.8435 17.7551Z"></path>
<path fill="#4B5158" d="M13.2666 13.8013C13.1997 13.3267 12.3859 13.4387 12.3141 13.2315C12.2121 12.939 12.5764 12.8688 12.7803 12.9674C12.8572 13.0042 12.8856 13.1195 12.9273 13.1279C12.9825 13.1379 13.1479 13.041 13.2298 13.0593C13.051 12.4811 11.923 12.5513 11.9448 13.198C11.9631 13.7645 12.5263 13.6308 12.8271 13.8013C13.178 14.0018 12.7318 14.3828 12.3324 14.1756C12.1503 14.0804 12.2389 13.8798 11.8662 14.0202C12.055 14.7254 13.3886 14.6619 13.2666 13.8013Z"></path>
<path fill="#4B5158" d="M0 14.4593H1.16307V14.1785H0.320847V13.6973H1.00265V13.4165H0.320847V12.977H1.16307V12.6963H0V14.4593Z"></path>
<path fill="#4B5158" d="M2.70707 15.8594H1.80469V17.6224H2.12553V16.9406C2.53495 16.9723 3.11147 16.9322 3.12985 16.3991C3.13654 16.1902 2.92431 15.8594 2.70707 15.8594ZM2.7171 16.5713C2.62351 16.6648 2.26256 16.603 2.12553 16.6214V16.1401C2.31938 16.1585 2.72211 16.0532 2.76723 16.3223C2.77725 16.3858 2.76054 16.5261 2.7171 16.5713Z"></path>
<path fill="#4B5158" d="M12.3077 16.862H12.9494V16.5813H12.3077V16.1401H13.1098V15.8594H11.9868V17.6224H13.1499V17.3416H12.3077V16.862Z"></path>
<path fill="#4B5158" d="M18.7226 14.3394C18.8563 14.3694 18.9081 14.4864 19.0685 14.4964C19.7804 14.5482 19.8155 12.9256 18.9532 13.1479C18.8563 13.1713 18.7895 13.2598 18.7427 13.3384C18.731 13.061 18.6942 13.1412 18.4419 13.1362V14.8992H18.7226V14.3394ZM18.9516 13.3852C19.3693 13.2966 19.3877 14.2341 19.0151 14.2474C18.6742 14.2608 18.6558 13.447 18.9516 13.3852Z"></path>
<path fill="#4B5158" d="M17.6417 19.4828C17.4312 19.4176 17.2006 19.4628 17.0986 19.6666C17.0869 19.3892 17.0502 19.4695 16.7979 19.4644V21.2274H17.0786V20.6676C17.2123 20.696 17.2641 20.8163 17.4228 20.8247C18.0846 20.8548 18.0829 19.6182 17.6417 19.4828ZM17.3727 20.5757C17.0301 20.5891 17.0118 19.7753 17.3092 19.7134C17.7236 19.6265 17.7353 20.5623 17.3727 20.5757Z"></path>
<path fill="#4B5158" d="M2.00344 13.8176C2.04021 13.9028 2.26079 14.4325 2.29087 14.4526C2.34768 14.4877 2.56158 14.4426 2.64514 14.4593C2.60503 14.3022 2.21233 13.6989 2.21901 13.5987C2.22402 13.5001 2.62508 13.1876 2.56492 13.1375C2.24742 13.089 2.28753 13.1625 2.12543 13.3179C1.99342 13.4449 1.86976 13.587 1.7227 13.6973V12.6963H1.40186V14.4593H1.7227C1.6826 14.1485 1.73941 13.9864 2.00344 13.8193V13.8176Z"></path>
<path fill="#4B5158" d="M23.171 17.6226C23.1326 17.4756 22.7349 16.8456 22.7415 16.762C22.7449 16.7253 23.0941 16.3827 23.1309 16.3025C22.6981 16.2056 22.536 16.6835 22.2486 16.9024V15.8613H21.9277V17.6243C22.4123 17.6627 22.1834 17.5909 22.2586 17.2934C22.272 17.2383 22.4792 16.9843 22.5093 16.9843C22.7466 17.25 22.6981 17.7396 23.171 17.6243V17.6226Z"></path>
<path fill="#4B5158" d="M29.5464 16.3005C29.132 16.2086 28.9332 16.6682 28.6641 16.9005V15.8594H28.3433V17.6224H28.6641C28.6223 17.3065 28.6825 17.1728 28.9248 16.9823C29.1621 17.248 29.1136 17.7377 29.5865 17.6224C29.5481 17.477 29.1487 16.8436 29.1571 16.7618C29.1621 16.7116 29.503 16.3858 29.5464 16.3022V16.3005Z"></path>
<path fill="#4B5158" d="M8.81987 16.3005C8.39709 16.207 8.21494 16.6732 7.93755 16.9005V15.8594H7.6167V17.6224H7.93755C7.89577 17.3065 7.95593 17.1728 8.19823 16.9823C8.43553 17.248 8.38707 17.7377 8.85998 17.6224C8.82155 17.477 8.42216 16.8436 8.43051 16.7618C8.43553 16.7116 8.77643 16.3858 8.81987 16.3022V16.3005Z"></path>
<path fill="#4B5158" d="M24.6653 13.8694C24.7205 13.958 24.916 14.4342 24.9427 14.4526C24.9962 14.486 25.1783 14.4442 25.2569 14.4593C25.3053 14.4158 24.8542 13.7106 24.8575 13.597C24.8592 13.4884 25.2886 13.201 25.2168 13.1375C24.7673 13.0322 24.6687 13.5469 24.3345 13.7374V12.6963H24.0537V14.4593H24.3345C24.3445 14.354 24.3127 14.227 24.3428 14.1267C24.3478 14.1083 24.5768 13.8243 24.5951 13.8176C24.6687 13.7942 24.6486 13.8443 24.6637 13.8694H24.6653Z"></path>
<path fill="#4B5158" d="M30.5205 19.4738C30.2431 19.412 29.68 19.4454 29.6666 19.8248C29.9924 19.9685 29.9072 19.6125 30.2849 19.666C30.4303 19.6877 30.5472 19.8649 30.4687 19.9451C30.4353 19.9802 29.7017 19.9133 29.6281 20.286C29.5396 20.7321 29.9223 20.9293 30.2966 20.7539C30.3785 20.7154 30.4136 20.6202 30.5088 20.6269C30.457 20.8775 30.6375 20.7672 30.8297 20.7856C30.691 20.4731 30.975 19.5741 30.5205 19.4738ZM29.9423 20.3662C29.954 20.1439 30.2949 20.1306 30.4687 20.1456C30.6074 20.5517 29.9206 20.7956 29.9423 20.3662Z"></path>
<path fill="#4B5158" d="M29.6281 13.9578C29.5396 14.404 29.9223 14.6012 30.2966 14.4257C30.3785 14.3873 30.4136 14.2921 30.5088 14.2987C30.457 14.5494 30.6375 14.4391 30.8297 14.4575C30.691 14.145 30.975 13.246 30.5205 13.1457C30.2431 13.0839 29.68 13.1173 29.6666 13.4966C29.9924 13.6403 29.9072 13.2844 30.2849 13.3379C30.4303 13.3596 30.5472 13.5367 30.4687 13.6169C30.4353 13.652 29.7017 13.5852 29.6281 13.9578ZM29.9423 14.0381C29.954 13.8158 30.2949 13.8024 30.4687 13.8175C30.6074 14.2235 29.9206 14.4675 29.9423 14.0381Z"></path>
<path fill="#4B5158" d="M27.7417 17.4222C27.6932 17.7163 27.8302 17.6077 28.0625 17.6227C27.9205 17.3036 28.2179 16.4129 27.7534 16.3093C27.5562 16.2658 27.1451 16.2859 26.9947 16.4346C26.9329 16.4964 26.8393 16.6552 26.9663 16.6953C27.1718 16.7621 27.1601 16.5833 27.2704 16.5298C27.4576 16.4413 27.7634 16.5031 27.7032 16.7605C27.6882 16.8407 26.8309 16.697 26.856 17.2835C26.8777 17.7547 27.4994 17.7414 27.7417 17.4222ZM27.1802 17.1632C27.2136 16.9877 27.5528 16.9627 27.7032 16.981C27.8453 17.4372 27.0966 17.6027 27.1802 17.1632Z"></path>
<path fill="#4B5158" d="M21.552 19.4694C21.4066 19.4894 21.0406 19.7351 21.2061 19.847C21.3882 19.969 21.4434 19.7401 21.5369 19.6949C21.7408 19.598 22.0299 19.6866 22.0099 19.9456C21.6773 19.9707 21.1342 19.9606 21.1242 20.4068C21.1125 20.9115 21.7475 20.9232 22.0099 20.5873C21.9614 20.8814 22.0967 20.7728 22.3307 20.7862C22.1686 20.1177 22.6248 19.3156 21.552 19.4694ZM21.4467 20.3266C21.4801 20.1511 21.821 20.1278 21.9697 20.1461C22.1118 20.6007 21.3631 20.7661 21.4467 20.3266Z"></path>
<path fill="#4B5158" d="M18.5056 19.4694C18.3585 19.4894 17.9926 19.7351 18.1597 19.847C18.3418 19.969 18.397 19.7401 18.4906 19.6949C18.6944 19.598 18.9835 19.6866 18.9635 19.9456C18.6309 19.9707 18.0878 19.9606 18.0778 20.4068C18.0661 20.9115 18.6994 20.9232 18.9618 20.5873C18.915 20.8814 19.0504 20.7728 19.2843 20.7862C19.1222 20.1177 19.5768 19.3156 18.5056 19.4694ZM18.4003 20.3266C18.4337 20.1511 18.773 20.1278 18.9234 20.1461C19.0654 20.6007 18.3168 20.7661 18.4003 20.3266Z"></path>
<path fill="#4B5158" d="M10.2871 13.1414C10.0983 13.1681 9.93282 13.3052 9.90274 13.4973C10.2453 13.6227 10.1317 13.4806 10.2219 13.3987C10.379 13.2584 10.7901 13.3402 10.745 13.6176C10.4425 13.6377 9.8877 13.6394 9.85929 14.0388C9.8242 14.5618 10.4659 14.6119 10.7433 14.2593C10.7115 14.5067 10.8736 14.4632 11.0641 14.4582C10.9054 13.7814 11.3633 12.9877 10.2871 13.1414ZM10.1818 13.9987C10.2152 13.8232 10.5545 13.7998 10.7049 13.8182C10.8636 14.271 10.0983 14.4398 10.1818 13.9987Z"></path>
<path fill="#4B5158" d="M17.1183 17.4224C17.0865 17.6714 17.2486 17.628 17.4391 17.623C17.2804 16.9445 17.7366 16.1507 16.6604 16.3045C16.4716 16.3312 16.3062 16.4699 16.2761 16.6604C16.5368 16.7841 16.5017 16.622 16.6253 16.5485C16.8259 16.4298 17.1383 16.5083 17.1183 16.7807C16.8175 16.8025 16.261 16.8025 16.2343 17.2035C16.1992 17.7266 16.8392 17.775 17.1183 17.4224ZM16.5568 17.1634C16.5902 16.9879 16.9295 16.9629 17.0782 16.9813C17.2369 17.4358 16.4733 17.6029 16.5568 17.1634Z"></path>
<path fill="#4B5158" d="M16.9563 13.9146C16.7424 14.451 17.5161 14.6984 17.8002 14.2589C17.8019 14.5162 17.9055 14.4627 18.1211 14.4577C18.0241 14.1335 18.1261 13.7542 18.0826 13.435C18.0241 12.9889 17.0248 13.0206 16.958 13.4969C17.2855 13.6155 17.1936 13.4684 17.3423 13.3816C17.6197 13.2195 17.9055 13.5152 17.8002 13.6172C17.7401 13.6757 17.0967 13.5587 16.9563 13.9146ZM17.2454 14.0065C17.2972 13.811 17.6381 13.7977 17.8002 13.8177C17.9389 14.2739 17.1335 14.4243 17.2454 14.0065Z"></path>
<path fill="#4B5158" d="M10.6634 16.3009V17.1214C10.6634 17.3236 10.2991 17.4606 10.2222 17.3419C10.1955 17.3002 10.2222 16.4997 10.2222 16.361C10.2222 16.2842 9.96654 16.2975 9.90137 16.3009V17.4021C9.90137 17.4255 10.0083 17.5592 10.0401 17.5826C10.249 17.733 10.4979 17.6544 10.6433 17.4623C10.6417 17.7146 10.777 17.6026 10.9842 17.6227V16.361C10.9842 16.2842 10.7286 16.2975 10.6634 16.3009Z"></path>
<path fill="#4B5158" d="M7.3761 17.0212C7.42791 15.9885 6.04091 16.0553 6.17293 17.1231C6.25481 17.7732 7.20565 17.8467 7.336 17.2217C7.04857 17.1482 7.08366 17.3003 6.94831 17.3738C6.68261 17.5175 6.45701 17.3003 6.49544 17.0212H7.3761ZM7.05693 16.8224H6.49544C6.49544 16.3962 7.03353 16.3962 7.05693 16.8224Z"></path>
<path fill="#4B5158" d="M19.2558 17.3736C19.0118 17.5207 18.7361 17.2967 18.803 17.021H19.6836C19.697 15.9616 18.3267 16.0635 18.4855 17.158C18.5774 17.7897 19.5199 17.8282 19.6435 17.2215C19.3761 17.1497 19.3795 17.3001 19.2558 17.3736ZM19.3644 16.8222H18.803C18.803 16.396 19.341 16.396 19.3644 16.8222Z"></path>
<path fill="#4B5158" d="M19.7619 13.8381C19.7753 14.5667 20.6994 14.7522 20.9668 14.0771C20.6777 13.9384 20.6075 14.2843 20.3568 14.2508C20.1429 14.2241 20.0811 14.0553 20.0844 13.8581H20.9668C21.0787 12.8923 19.7435 12.8655 19.7619 13.8381ZM20.0844 13.6576C20.1128 13.2432 20.666 13.2098 20.6459 13.6576H20.0844Z"></path>
<path fill="#4B5158" d="M24.7336 20.1663C24.747 20.9199 25.7229 21.0737 25.8983 20.3869C25.6092 20.3117 25.646 20.4637 25.509 20.5389C25.26 20.6726 25.0076 20.4621 25.0561 20.1863H25.9384C26.0337 19.2271 24.7152 19.187 24.7336 20.1663ZM25.0561 19.9858C25.0795 19.5614 25.6176 19.5597 25.6176 19.9858H25.0561Z"></path>
<path fill="#4B5158" d="M28.5254 14.0563C28.253 14.0178 28.2847 14.1615 28.1327 14.2284C27.8903 14.3337 27.6765 14.1031 27.7032 13.8574H28.5838C28.7092 12.8882 27.3573 12.8731 27.3807 13.8357C27.3924 14.3404 27.8954 14.6712 28.3415 14.3972C28.4101 14.3554 28.6891 14.0797 28.5254 14.0563ZM28.263 13.6569H27.7032C27.7299 13.2425 28.2831 13.209 28.263 13.6569Z"></path>
<path fill="#4B5158" d="M5.96252 13.1456C5.32417 13.2642 5.37263 14.5342 6.14801 14.4958C6.98021 14.454 6.96182 12.9617 5.96252 13.1456ZM6.32514 14.1666C6.25496 14.2334 6.09955 14.2251 6.01098 14.2C5.74194 14.1248 5.78372 13.184 6.25329 13.3979C6.45549 13.4881 6.46551 14.0346 6.32514 14.1666Z"></path>
<path fill="#4B5158" d="M25.5522 17.5774C25.6241 17.5373 25.9282 17.2448 25.7578 17.2214C25.4871 17.183 25.5188 17.3251 25.3668 17.3919C25.1361 17.4938 24.9122 17.2499 24.9356 17.0209H25.8179C25.9433 16.0818 24.6382 16.0183 24.6198 16.9658C24.6098 17.4755 25.086 17.8331 25.5522 17.5774ZM25.4152 16.563C25.4386 16.5814 25.5355 16.7469 25.5355 16.7619C25.5322 16.8655 25.0342 16.807 24.9356 16.8204C24.9356 16.5764 25.2147 16.3893 25.4152 16.563Z"></path>
<path fill="#4B5158" d="M22.5797 13.7976C22.573 14.3106 23.0559 14.705 23.5305 14.3958C23.599 14.3524 23.8798 14.08 23.7143 14.0566C23.4419 14.0198 23.4754 14.1602 23.3216 14.2287C23.0927 14.329 22.8671 14.085 22.8922 13.8577H23.7728C23.9065 12.9253 22.5897 12.8534 22.5797 13.7976ZM22.8922 13.6572C22.8972 13.4082 23.1595 13.2311 23.3717 13.3965C23.4119 13.4283 23.4937 13.567 23.4921 13.597C23.4837 13.7023 22.9924 13.6422 22.8922 13.6572Z"></path>
<path fill="#4B5158" d="M15.7533 19.4827C15.3773 19.5946 15.3088 20.2079 15.4525 20.5087C15.6079 20.8312 16.0206 20.9164 16.3147 20.7243C16.3816 20.6808 16.664 20.4084 16.4969 20.3867C16.2262 20.3483 16.2596 20.4903 16.1059 20.5572C15.8569 20.6658 15.6864 20.4118 15.6747 20.1862H16.5571C16.6456 19.6765 16.2529 19.3356 15.7533 19.4827ZM15.6747 19.9857C15.7366 19.5579 16.2262 19.5528 16.2763 19.9857H15.6747Z"></path>
<path fill="#4B5158" d="M23.7644 17.6526C24.6968 17.7528 24.7069 16.0667 23.6424 16.309C23.116 16.4293 23.0659 17.5774 23.7644 17.6526ZM23.7627 16.5496C24.3192 16.3809 24.2289 17.686 23.6775 17.3384C23.4987 17.2248 23.5254 16.6198 23.7627 16.5496Z"></path>
<path fill="#4B5158" d="M4.56021 16.3095C3.99371 16.4265 3.95361 17.4826 4.57859 17.6364C5.53779 17.8703 5.65309 16.0856 4.56021 16.3095ZM4.58695 17.3456C4.37138 17.2152 4.40647 16.6187 4.63875 16.5502C5.18853 16.3864 5.13005 17.6681 4.58695 17.3456Z"></path>
<path fill="#4B5158" d="M29.8406 16.4345C29.5481 16.7286 29.5932 17.4555 30.0177 17.6126C30.6811 17.8566 31.0888 17.0561 30.7429 16.528C30.5625 16.2523 30.0662 16.2072 29.8406 16.4345ZM30.1363 17.3736C29.9291 17.3118 29.9375 16.7085 30.0795 16.5932C30.5775 16.1888 30.7881 17.5741 30.1363 17.3736Z"></path>
<path fill="#4B5158" d="M3.8903 13.9981C3.95714 13.4533 3.72821 13.0205 3.11659 13.1458C2.59187 13.2528 2.54341 14.222 3.04641 14.4376C3.38563 14.5829 3.84351 14.3824 3.8903 13.9981ZM3.38731 14.217C2.89267 14.3139 2.92442 13.4483 3.23691 13.3848C3.70648 13.2879 3.6647 14.1635 3.38731 14.217Z"></path>
<path fill="#4B5158" d="M25.7662 13.1455C25.2214 13.2575 25.188 14.2484 25.7278 14.4473C26.072 14.5743 26.4781 14.3654 26.5366 13.9944C26.6218 13.4663 26.3461 13.0269 25.7662 13.1455ZM26.1288 13.4279C26.2575 13.5482 26.2826 14.1448 26.0703 14.21C25.5673 14.3637 25.5456 13.4948 25.8564 13.3928C25.9367 13.3678 26.0653 13.3678 26.1288 13.4279Z"></path>
<path fill="#4B5158" d="M22.3307 14.4592V13.4782C22.3307 13.4665 22.2471 13.2827 22.2304 13.2593C22.0617 13.0321 21.6389 13.1173 21.5503 13.3796C21.5002 13.378 21.5503 13.1574 21.5303 13.139C21.5169 13.1256 21.3047 13.149 21.2495 13.139V14.4608H21.5303V13.7606C21.5303 13.6036 21.7074 13.3161 21.8895 13.3997C21.9079 13.408 22.0115 13.5133 22.0115 13.5217V14.4625H22.3324L22.3307 14.4592Z"></path>
<path fill="#4B5158" d="M5.25229 14.4593V13.3981C5.25229 13.3296 5.06513 13.1642 4.98325 13.1458C4.70919 13.084 4.60893 13.1876 4.45017 13.3781C4.47858 13.0756 4.44349 13.1341 4.16943 13.1375V14.4593H4.49028V13.5987C4.49028 13.3965 4.97155 13.2494 4.97155 13.6388V14.4593H5.25229Z"></path>
<path fill="#4B5158" d="M26.951 19.4739C26.677 19.4121 26.5767 19.5157 26.4179 19.7062C26.4464 19.4038 26.4113 19.4622 26.1372 19.4656V20.7874H26.4581V19.9669C26.4581 19.6711 26.9393 19.6511 26.9393 19.8867V20.7874H27.2201V19.7263C27.2201 19.6578 27.0329 19.4923 26.951 19.4739Z"></path>
<path fill="#4B5158" d="M14.3546 17.282C14.4047 16.7238 13.8834 16.906 13.6177 16.7439C13.4522 16.6436 13.6745 16.4097 13.9118 16.52C14.0338 16.5768 14.0187 16.7004 14.2727 16.6202C14.2243 16.1323 13.3085 16.1791 13.2801 16.6904C13.255 17.1433 13.8032 17.038 14.0054 17.1784C14.1992 17.3121 13.9018 17.5076 13.6411 17.3923C13.4857 17.3237 13.4957 17.2218 13.23 17.302C13.3135 17.79 14.3112 17.7599 14.3546 17.282Z"></path>
<path fill="#4B5158" d="M29.1053 20.2863C29.1053 20.5487 28.624 20.6473 28.624 20.4066V19.4658H28.3433V20.5671C28.3433 20.5905 28.4502 20.7241 28.482 20.7475C28.6858 20.8946 28.9332 20.7993 29.0852 20.6272C29.1203 20.8211 29.2089 20.7943 29.386 20.7876V19.4658H29.1053V20.2863Z"></path>
<path fill="#4B5158" d="M13.5508 13.1377V14.2389C13.5508 14.3308 13.763 14.4796 13.8616 14.4913C14.129 14.523 14.2677 14.2991 14.2927 14.2991C14.3445 14.2991 14.3445 14.4395 14.3579 14.4528C14.388 14.4796 14.535 14.4478 14.5935 14.4595V13.1377H14.3128V13.9582C14.3128 14.2206 13.8315 14.3191 13.8315 14.0785V13.1377H13.5508Z"></path>
<path fill="#4B5158" d="M15.9069 13.9267C15.8233 13.5591 15.1315 13.7212 15.1315 13.4772C15.1315 13.3118 15.4156 13.3067 15.5275 13.3753C15.6278 13.4371 15.566 13.5273 15.8367 13.4571C15.8267 13.0093 14.9443 13.0093 14.8758 13.4404C14.7856 14.0136 15.2903 13.8498 15.5526 14.0002C15.7799 14.1323 15.4791 14.3512 15.205 14.2275C15.0496 14.159 15.0596 14.0571 14.7939 14.1373C14.9577 14.6804 16.0606 14.5985 15.9069 13.925V13.9267Z"></path>
<path fill="#4B5158" d="M18.3551 17.6179C18.3684 17.5945 18.3684 17.3923 18.3601 17.384C18.35 17.3739 18.0793 17.3723 18.0793 17.3439V16.5434H18.32V16.3028C17.9573 16.3429 18.1161 16.251 18.0793 16.002C18.071 15.9435 18.1027 15.9368 18.0192 15.9435C17.6131 15.9702 17.8738 16.2326 17.7986 16.3045C17.7836 16.3195 17.6131 16.2894 17.5981 16.3045C17.5897 16.3128 17.5897 16.5367 17.5981 16.5451C17.6114 16.5585 17.7451 16.5317 17.7585 16.5451C17.7886 16.5735 17.7585 17.2536 17.7585 17.3656C17.7585 17.6213 18.2698 17.7566 18.3534 17.6196L18.3551 17.6179Z"></path>
<path fill="#4B5158" d="M28.704 13.1377C28.6957 13.1461 28.6957 13.37 28.704 13.3784C28.7174 13.3918 28.8511 13.365 28.8644 13.3784C28.8945 13.4068 28.8644 14.0869 28.8644 14.1989C28.8644 14.4546 29.3758 14.5899 29.4593 14.4529C29.4727 14.4295 29.4727 14.2273 29.4644 14.2189C29.4543 14.2089 29.1836 14.2072 29.1836 14.1788V13.3784H29.4243V13.1377C29.0616 13.1779 29.2204 13.0859 29.1836 12.837C29.1753 12.7785 29.207 12.7718 29.1235 12.7785C28.7174 12.8052 28.9781 13.0676 28.9029 13.1394C28.8878 13.1545 28.7174 13.1244 28.7023 13.1394L28.704 13.1377Z"></path>
<path fill="#4B5158" d="M9.38158 17.3418V16.5413H9.62222V16.3007C9.57208 16.2924 9.39495 16.3141 9.38158 16.3007C9.3515 16.2706 9.45511 15.9431 9.28466 15.9414C8.95713 15.9381 9.15766 16.2456 9.10084 16.3007C9.0858 16.3158 8.91535 16.2857 8.90031 16.3007C8.89195 16.3091 8.89195 16.533 8.90031 16.5413C8.91368 16.5547 9.04736 16.528 9.06073 16.5413C9.09081 16.5698 9.06073 17.2499 9.06073 17.3618C9.06073 17.6175 9.57208 17.7529 9.65564 17.6159C9.669 17.5925 9.66901 17.3903 9.66065 17.3819C9.65062 17.3719 9.37991 17.3702 9.37991 17.3418H9.38158Z"></path>
<path fill="#4B5158" d="M26.694 17.6182C26.7074 17.5965 26.709 17.3909 26.7007 17.3826C26.6907 17.3725 26.4199 17.411 26.4199 17.3224V16.542H26.6606V16.3014C26.2879 16.3549 26.4701 16.2078 26.3999 15.9404C26.3548 15.9605 26.1509 15.9739 26.1425 15.9839C26.1192 16.0073 26.1593 16.2847 26.1409 16.3031C26.1258 16.3181 25.9554 16.288 25.9403 16.3031C25.932 16.3114 25.932 16.5353 25.9403 16.5437C25.9537 16.5571 26.0874 16.5303 26.1008 16.5437C26.1309 16.5721 26.1008 17.2522 26.1008 17.3642C26.1008 17.6199 26.6121 17.7552 26.6957 17.6182H26.694Z"></path>
<path fill="#4B5158" d="M27.8618 20.4473V19.7071H28.1025V19.4664C27.7298 19.5199 27.912 19.3728 27.8418 19.1055C27.7967 19.1255 27.5928 19.1389 27.5844 19.1489C27.561 19.1723 27.6012 19.4497 27.5828 19.4681C27.5677 19.4831 27.3973 19.4531 27.3822 19.4681C27.3739 19.4764 27.3739 19.7004 27.3822 19.7087C27.3956 19.7221 27.5293 19.6954 27.5427 19.7087C27.5677 19.7321 27.5427 20.3103 27.5427 20.4089C27.5427 20.4306 27.6028 20.6663 27.6195 20.693C27.6964 20.8167 28.0757 20.8852 28.1376 20.7849C28.1509 20.7632 28.1509 20.5593 28.1426 20.551C28.1309 20.5409 27.8618 20.5643 27.8618 20.4507V20.4473Z"></path>
<path fill="#4B5158" d="M16.7525 14.4541C16.7625 14.4424 16.7658 14.2269 16.7575 14.2185C16.7458 14.2085 16.4767 14.2319 16.4767 14.1182V13.378H16.7575V13.1607C16.7491 13.1022 16.4985 13.1607 16.4767 13.1373C16.4617 13.1223 16.4884 12.8399 16.4767 12.7764C16.4249 12.8265 16.2461 12.8081 16.2361 12.8165C16.2244 12.8282 16.2495 13.0939 16.1893 13.1306C16.1509 13.154 16.0489 13.1223 16.0356 13.1356C16.0272 13.144 16.0272 13.3679 16.0356 13.3763C16.0489 13.3897 16.1826 13.3629 16.196 13.3763C16.2294 13.4064 16.196 14.155 16.196 14.277C16.196 14.4341 16.6589 14.5627 16.7525 14.4525V14.4541Z"></path>
<path fill="#4B5158" d="M14.9128 15.9401C14.8576 15.9903 14.6922 15.9686 14.6755 15.9836C14.6604 15.997 14.642 16.2877 14.6304 16.2994C14.6086 16.3195 14.4866 16.2877 14.4716 16.2994C14.4632 16.3078 14.4632 16.5317 14.4716 16.5401C14.485 16.5534 14.6187 16.5267 14.632 16.5401C14.6654 16.5701 14.632 17.3188 14.632 17.4408C14.632 17.6062 15.0999 17.7215 15.1885 17.6162C15.1985 17.6045 15.2019 17.389 15.1935 17.3806C15.1818 17.3706 14.9128 17.394 14.9128 17.2804V16.5401H15.1534V16.3228C15.145 16.266 14.9328 16.3228 14.9128 16.2994C14.8977 16.2844 14.9245 16.002 14.9128 15.9385V15.9401Z"></path>
<path fill="#4B5158" d="M20.7262 20.4473V19.7071H20.9669V19.4898C20.9585 19.433 20.7463 19.4898 20.7262 19.4664C20.7112 19.4514 20.7379 19.169 20.7262 19.1055C20.6744 19.1556 20.4973 19.1355 20.4873 19.1472C20.4756 19.1589 20.4772 19.433 20.4422 19.4631C20.4121 19.4865 20.3001 19.4531 20.2851 19.4664C20.2767 19.4748 20.2767 19.6987 20.2851 19.7071C20.2984 19.7204 20.4321 19.6937 20.4455 19.7071C20.4789 19.7371 20.4455 20.4858 20.4455 20.6078C20.4455 20.7732 20.9134 20.8885 21.002 20.7832C21.012 20.7715 21.0153 20.556 21.007 20.5476C20.9953 20.5376 20.7262 20.561 20.7262 20.4473Z"></path>
<path fill="#4B5158" d="M4.00874 16.2607C3.8667 16.2758 3.71463 16.346 3.68789 16.5014C3.60935 16.5081 3.66784 16.3928 3.63108 16.3393C3.58596 16.2724 3.35201 16.2841 3.32861 16.361V17.6227H3.64946V16.9225C3.64946 16.9008 3.74137 16.7086 3.76978 16.6835C3.84832 16.615 3.99871 16.6301 4.00874 16.6217C4.02879 16.6016 3.99871 16.3293 4.00874 16.2624V16.2607Z"></path>
<path fill="#4B5158" d="M15.7148 16.3011C15.7015 16.2878 15.4892 16.3112 15.4341 16.3011V17.623H15.7549V16.8426C15.7549 16.8192 15.8619 16.6855 15.8936 16.6621C16.0908 16.52 16.161 16.6755 16.1142 16.2627C15.9555 16.2777 15.7934 16.378 15.7533 16.5418C15.663 16.5351 15.7382 16.3262 15.7132 16.3011H15.7148Z"></path>
<path fill="#4B5158" d="M19.8438 19.7049C19.7536 19.6982 19.8288 19.4893 19.8037 19.4642C19.7903 19.4508 19.5781 19.4742 19.5229 19.4642V20.786H19.8438V20.0056C19.8438 19.9822 19.9507 19.8486 19.9825 19.8252C20.1797 19.6831 20.2499 19.8385 20.2031 19.4258C20.0443 19.4408 19.8822 19.5411 19.8421 19.7049H19.8438Z"></path>
<path fill="#4B5158" d="M27.6897 7.89925C27.3589 7.97445 27.3789 8.52256 27.7298 8.60277C28.4233 8.7632 28.4451 7.72713 27.6897 7.89925Z"></path>
<path fill="#4B5158" d="M10.1936 3.61245C10.8738 3.8464 10.9924 2.75352 10.2103 2.93065C9.88281 3.00585 9.8544 3.49548 10.1936 3.61245Z"></path>
<path fill="#4B5158" d="M21.6089 16.3008H21.2881V17.6226H21.6089V16.3008Z"></path>
<path fill="#4B5158" d="M9.30127 13.1378V14.4596H9.62212V13.1979C9.62212 13.1211 9.36644 13.1344 9.30127 13.1378Z"></path>
<path fill="#4B5158" d="M5.89402 16.3008H5.61328V17.6226H5.89402V16.3008Z"></path>
<path fill="#4B5158" d="M21.6089 15.8594H21.2881V16.1802H21.6089V15.8594Z"></path>
<path fill="#4B5158" d="M9.62212 12.6963H9.30127V13.0171C9.60875 13.0472 9.6522 13.0038 9.62212 12.6963Z"></path>
<path fill="#4B5158" d="M5.89402 15.8594H5.61328V16.1802H5.89402V15.8594Z"></path>
<path fill="#4B5158" d="M55.6551 3.33186C55.8306 3.38367 55.8724 3.49563 55.8874 3.66274C55.9292 4.12228 55.9292 5.08649 55.8807 5.54103C55.874 5.59617 55.8456 5.77665 55.8256 5.8084C55.7654 5.89864 55.498 5.87524 55.4847 5.88861C55.4797 5.89363 55.4797 6.04235 55.4847 6.04736C55.5298 6.09415 56.6126 6.04736 56.7881 6.04736C57.9846 6.04736 58.6881 4.66873 57.9696 3.70451C57.8108 3.49062 57.2844 3.16309 57.0271 3.16309H55.4847C55.4579 3.40038 55.5114 3.29176 55.6551 3.33186ZM56.3269 3.38367C56.3754 3.22492 57.0053 3.38367 57.1407 3.45051C57.9896 3.87329 57.9746 5.72819 56.9084 5.84684C56.7998 5.85853 56.3269 5.85686 56.3269 5.70646V3.38367Z"></path>
<path fill="#4B5158" d="M63.1748 10.8486C63.2233 10.6213 63.0796 10.0415 63.3035 9.91445C63.4489 9.83089 63.6377 9.93617 63.5825 9.69219H62.2992C62.2273 10.0197 62.6735 9.77408 62.7621 10.0498C62.7921 10.1451 62.7971 10.5311 62.7788 10.6313C62.7236 10.9288 62.1036 10.9104 61.8764 10.8135C60.9489 10.4174 61.0241 8.35032 62.0769 8.24839C62.3944 8.21831 62.6367 8.33027 62.8122 8.59597C62.884 8.70459 63.001 9.10899 63.0244 9.12403C63.0595 9.14575 63.133 9.12403 63.1782 9.13071V8.12974C62.991 8.0512 62.9542 8.23836 62.9158 8.24839C62.8824 8.25674 62.6618 8.1264 62.5799 8.10634C61.1595 7.7504 60.2371 9.34628 60.9974 10.4893C61.4803 11.2162 62.4496 11.1494 63.1731 10.8469L63.1748 10.8486Z"></path>
<path fill="#4B5158" d="M56.8683 10.8133L56.8867 11.0139C56.9903 10.9788 57.5852 11.0005 57.6086 10.9738C57.6153 10.9687 57.6153 10.82 57.6086 10.815C57.5952 10.8016 57.2877 10.8117 57.2877 10.673V7.89062H56.4672C56.4238 7.89062 56.382 8.02765 56.4071 8.04938C56.4271 8.06943 56.8867 8.03267 56.8867 8.26996V9.05202C55.9592 8.71948 55.2975 9.34112 55.4629 10.2953C55.5799 10.9704 56.3452 11.3314 56.8683 10.8133ZM56.2751 9.14059C56.5107 9.08544 56.8215 9.18738 56.8783 9.43971C56.9101 9.5734 56.9134 10.414 56.8867 10.5527C56.8683 10.6496 56.7129 10.7833 56.6193 10.805C55.6233 11.0339 55.7386 9.26258 56.2751 9.14059Z"></path>
<path fill="#4B5158" d="M59.6137 6.9281H60.7367C60.8286 6.73759 60.3356 6.77268 60.3356 6.62897V5.96723C61.1377 6.35324 61.8379 5.755 61.7777 4.90609C61.7226 4.14408 60.9572 3.65111 60.3557 4.24435L60.3356 4.00538C60.227 4.04883 59.6388 4.01875 59.6137 4.04549C59.607 4.0505 59.6104 4.19756 59.6154 4.20257C59.6338 4.22262 59.8944 4.18419 59.9329 4.38639C59.8844 4.67548 60.0097 6.66741 59.9112 6.73258C59.8126 6.79942 59.5586 6.73091 59.6137 6.9281ZM60.3423 4.43318C60.3791 4.31453 60.6682 4.19756 60.7918 4.20591C61.4385 4.2527 61.4803 5.43415 61.1227 5.79343C60.8937 6.02404 60.4125 5.92879 60.344 5.61797C60.3172 5.50267 60.3139 4.52843 60.3423 4.43318Z"></path>
<path fill="#4B5158" d="M66.9114 9.59032C66.741 8.97704 66.0107 8.71969 65.5662 9.21099C65.4526 9.25945 65.5311 8.99542 65.5061 8.97202C65.3958 9.03218 64.8493 8.98706 64.8243 9.01213C64.8192 9.01714 64.8226 9.16253 64.8276 9.16921C64.8727 9.21767 65.1117 9.09234 65.1484 9.47C65.2136 10.1368 65.095 10.9138 65.1451 11.5939C65.1134 11.761 64.963 11.741 64.8243 11.736C64.8309 11.7744 64.8159 11.8847 64.8259 11.8947C64.8644 11.9365 65.8035 11.8647 65.9472 11.8947C66.0425 11.6975 65.5462 11.7193 65.5462 11.6558V10.9339C66.492 11.3767 67.1704 10.5161 66.9114 9.59032ZM66.0475 10.8954C65.8252 10.9172 65.5846 10.7785 65.5495 10.5512C65.5261 10.4108 65.5228 9.51011 65.5545 9.39982C65.5863 9.29454 65.7968 9.19428 65.8988 9.17924C66.7393 9.06393 66.7276 10.8336 66.0475 10.8954Z"></path>
<path fill="#4B5158" d="M73.3349 10.8236C73.0491 10.6883 72.7534 10.0048 72.4843 9.78758C72.4726 9.75082 72.501 9.7341 72.5194 9.71071C72.5395 9.68564 72.9255 9.34307 72.9656 9.31466C73.1093 9.2144 73.3867 9.19936 73.3633 9.0122H72.481C72.4108 9.21941 72.7701 9.10912 72.7166 9.30631C72.6882 9.40824 72.1484 9.85944 72.0398 9.97474V7.89258H71.2979C71.2377 7.89258 71.246 8.01791 71.2862 8.04632C71.4265 8.14324 71.6053 7.96611 71.6404 8.35212C71.7089 9.10244 71.5869 9.95469 71.6371 10.7167C71.5903 10.969 71.2828 10.7301 71.358 11.0175H72.3206C72.3941 10.7618 72.0849 10.9055 72.0415 10.6766C72.0198 10.5579 72.0131 10.0182 72.1802 10.0182C72.2637 10.0182 72.872 11.0175 72.9422 11.0175H73.5237C73.5588 10.7835 73.4736 10.8922 73.3332 10.827L73.3349 10.8236Z"></path>
<path fill="#4B5158" d="M76.8326 3.40372C76.9178 3.47224 76.9245 3.56414 76.9329 3.66274C76.9897 4.29775 76.8878 5.01965 76.9279 5.66469C76.8811 5.95713 76.5652 5.85185 76.5301 5.88861C76.5185 5.90031 76.5368 6.00893 76.5301 6.04736H77.7734C77.8988 5.80673 77.3724 5.87023 77.3724 5.74657V4.64533C77.6364 4.66037 77.9272 4.56178 78.0876 4.83082C78.1828 4.98957 78.106 5.18008 78.3349 5.12493V4.00364C78.1026 3.94849 78.1862 4.14401 78.0893 4.29942C77.9506 4.51833 77.5996 4.48825 77.3724 4.48491V3.32351H78.1544C78.2179 3.32351 78.3466 3.43213 78.3951 3.48226C78.5505 3.64268 78.5405 3.92677 78.7744 3.88332V3.16309H76.5301C76.4717 3.41542 76.6789 3.28006 76.8326 3.40205V3.40372Z"></path>
<path fill="#4B5158" d="M73.3866 4.40355C73.4251 4.53055 73.4284 5.55325 73.3967 5.69864C73.3415 5.95264 73.1042 5.86909 73.0842 5.88747C73.0792 5.89248 73.0792 6.04121 73.0842 6.04622C73.1193 6.08298 73.9548 6.01948 74.0868 6.04622C74.1704 5.78553 73.8362 5.94595 73.7743 5.73874C73.7426 5.63513 73.7476 4.7244 73.7693 4.58737C73.8178 4.2849 74.3559 4.0827 74.548 4.36679C74.6734 4.55228 74.6901 5.47471 74.6416 5.69864C74.5865 5.95264 74.3492 5.86909 74.3291 5.88747C74.3191 5.89749 74.3358 6.00778 74.3291 6.04622H75.2917C75.3652 5.79054 75.0561 5.93426 75.0126 5.70532C74.9391 5.31763 75.1647 4.33671 74.8221 4.0827C74.6316 3.94233 74.3225 3.95737 74.1136 4.04761C73.883 4.14788 73.7309 4.54225 73.7693 4.00416L73.0875 4.04427C73.0224 4.2966 73.3148 4.15957 73.39 4.40188L73.3866 4.40355Z"></path>
<path fill="#4B5158" d="M67.1503 9.01207C67.0734 9.25437 67.4009 9.15077 67.4628 9.36132C67.5848 9.77909 67.2155 10.9138 67.8605 11.0458C68.188 11.1126 68.4353 10.9806 68.6726 10.7751C68.6058 11.2112 69.0921 10.9037 69.3544 10.9756C69.3862 10.74 69.311 10.8536 69.1957 10.7951C69.1706 10.7817 69.0737 10.6848 69.0737 10.6765V8.97363C68.9634 9.01374 68.3384 8.987 68.3117 9.01374C68.3017 9.02376 68.3184 9.13406 68.3117 9.17416C68.4604 9.15244 68.6392 9.18252 68.671 9.35631C68.6927 9.47496 68.6843 10.501 68.6509 10.5762C68.5273 10.8469 67.944 10.9422 67.8705 10.5962V9.03379C67.8705 8.91515 67.2556 9.0622 67.1486 9.01374L67.1503 9.01207Z"></path>
<path fill="#4B5158" d="M62.2506 4.35373C62.3759 4.77484 62.0083 5.92788 62.6567 6.07159C63.0176 6.1518 63.2466 5.99639 63.5006 5.76913V6.04987C63.6109 5.99974 64.159 6.03483 64.1824 6.00976C64.1874 6.00475 64.1857 5.85769 64.1807 5.85268C64.1673 5.83764 63.8615 5.84098 63.8615 5.67053V4.00781C63.7412 4.06463 63.1262 4.02118 63.0995 4.04792C63.0895 4.05794 63.1062 4.16824 63.0995 4.20834C63.2766 4.17492 63.4504 4.25179 63.4922 4.43728C63.5273 4.59436 63.524 5.29621 63.5022 5.47168C63.4671 5.75743 63.0076 5.98135 62.7803 5.78918C62.7586 5.7708 62.6583 5.60202 62.6583 5.59032V4.00781L61.9765 4.04792C61.8997 4.2919 62.1955 4.17325 62.2489 4.3554L62.2506 4.35373Z"></path>
<path fill="#4B5158" d="M84.3576 5.65844C84.269 5.2624 84.513 4.76108 84.3175 4.29819C84.1638 3.93556 83.6457 3.91885 83.3182 4.0375C82.6264 4.28649 83.0191 4.94489 83.3249 4.60399C83.4619 4.45193 83.1711 4.1528 83.5722 4.12774C83.8446 4.10936 83.9699 4.29652 83.99 4.54384C83.995 4.59397 84 4.72765 83.9816 4.75941C83.9565 4.79951 83.3031 4.99168 83.1778 5.05853C82.4225 5.45792 82.9756 6.43717 83.7761 5.97595C83.8763 5.91913 83.9248 5.80717 84.0284 5.80717C84.0217 6.00102 84.2272 6.09627 84.4044 6.08624C84.5514 6.07621 84.777 6.02608 84.7102 5.84728C84.6885 5.82555 84.4178 5.92916 84.3576 5.65844ZM83.9883 5.62669C83.9883 5.75537 83.2931 6.07454 83.263 5.58826C83.2346 5.14041 83.6491 5.05686 83.9883 4.92651V5.62669Z"></path>
<path fill="#4B5158" d="M66.9899 5.80714C66.9899 5.98762 67.2138 6.08956 67.3709 6.08956C67.5113 6.08788 67.7386 6.02104 67.6717 5.84725C67.5648 5.85059 67.3977 5.87399 67.3592 5.73863C67.2372 5.32755 67.5464 4.40511 67.152 4.10432C66.8211 3.85031 65.902 3.97732 65.9054 4.46527C65.9087 4.7811 66.3131 4.73598 66.3499 4.5037C66.3783 4.31989 66.1744 4.14275 66.5705 4.1227C66.8529 4.10766 67.0768 4.51874 66.9715 4.72596C66.8763 4.91479 65.9555 4.94487 65.8469 5.36598C65.6313 6.19149 66.527 6.26836 66.9899 5.80714ZM66.258 5.33757C66.3382 5.14373 66.7476 4.9833 66.9498 4.96659V5.62667C66.9498 5.64839 66.761 5.81383 66.7108 5.82887C66.3415 5.94584 66.1143 5.69017 66.258 5.33757Z"></path>
<path fill="#4B5158" d="M76.9528 10.7757C77.0614 10.9461 77.1684 11.0648 77.3923 11.0564C77.4792 11.0531 77.7917 10.9745 77.6931 10.8559C77.6864 10.8459 77.521 10.8392 77.4541 10.7924C77.0999 10.5484 77.7182 9.15641 76.9829 8.98095C76.6821 8.90909 76.2276 8.94586 76.0087 9.18983C75.7296 9.50065 76.0822 9.80479 76.2911 9.59423C76.4231 9.46222 76.1591 9.08623 76.5919 9.09124C76.9328 9.09458 77.0865 9.631 76.9478 9.73795C76.6721 9.9485 75.9218 9.90673 75.8198 10.403C75.6678 11.1316 76.5701 11.2486 76.9528 10.7757ZM76.9729 9.89336V10.5935C76.9729 10.7473 76.246 11.0197 76.2125 10.5518C76.1841 10.1591 76.6704 9.99362 76.9729 9.89336Z"></path>
<path fill="#4B5158" d="M71.6305 6.07755C73.1863 6.34158 73.2531 3.87006 71.7926 3.97701C70.5777 4.0639 70.6379 5.91044 71.6305 6.07755ZM71.8594 4.14579C72.5513 4.13242 72.5563 5.59127 72.1101 5.8553C71.2144 6.38503 70.9788 4.16584 71.8594 4.14579Z"></path>
<path fill="#4B5158" d="M80.0393 6.08761C81.2007 5.97899 81.219 3.90519 79.8521 3.97537C78.5821 4.03888 78.6122 6.21963 80.0393 6.08761ZM79.9189 4.14582C80.7912 4.16588 80.569 6.38674 79.67 5.85534C79.2238 5.59131 79.2271 4.13246 79.9189 4.14582Z"></path>
<path fill="#4B5158" d="M74.7774 11.0444C75.8519 10.8622 75.8068 8.89705 74.5601 8.94217C73.1464 8.9923 73.3068 11.2967 74.7774 11.0444ZM74.3947 9.14103C75.3255 8.9288 75.2453 10.6132 74.7824 10.8489C73.9168 11.29 73.7664 9.28307 74.3947 9.14103Z"></path>
<path fill="#4B5158" d="M59.024 10.8054C58.4441 10.924 58.16 10.4511 58.2101 9.93305H59.4935C59.5671 9.38159 59.3014 8.94043 58.7115 8.94043C57.403 8.94043 57.4665 11.3568 58.9738 11.0376C59.1209 11.0059 59.5704 10.685 59.5671 10.553C59.5654 10.5296 59.4785 10.4477 59.4367 10.4561C59.3766 10.4678 59.2562 10.7569 59.024 10.8054ZM59.0925 9.77263H58.2101C58.1684 8.94879 59.2011 8.86356 59.0925 9.77263Z"></path>
<path fill="#4B5158" d="M71.1591 10.2944C70.972 10.2476 71.0054 10.515 70.9385 10.6554C70.8166 10.9127 70.2935 10.8592 70.0362 10.8342L71.1591 9.0127H69.6351V9.61428C69.8223 9.66107 69.7822 9.39704 69.8791 9.2784C69.9092 9.24163 70.0195 9.17479 70.0545 9.17479H70.6762L69.6 10.8024L69.5532 11.0163H71.1575V10.2961L71.1591 10.2944Z"></path>
<path fill="#4B5158" d="M68.8148 6.08978C69.0471 6.07641 69.3897 5.90094 69.5016 5.69373C69.5585 5.58845 69.5685 5.43137 69.4348 5.50657C69.3395 5.55837 69.3011 5.7706 69.0772 5.82909C68.0394 6.10315 68.0712 4.15801 68.7781 4.12793C69.1891 4.11122 68.9719 4.40867 68.9936 4.58414C69.0321 4.88159 69.6353 4.84817 69.4264 4.31509C69.3228 4.05106 69.0103 3.95748 68.7463 3.97586C67.5331 4.05608 67.5448 6.1633 68.8148 6.09145V6.08978Z"></path>
<path fill="#4B5158" d="M64.6236 4.24673V5.74903C64.6236 5.9646 64.891 6.0916 65.0849 6.09327C65.2369 6.09327 65.7232 6.02309 65.6263 5.81086C65.4742 5.84261 65.0247 5.85598 65.0247 5.63039V4.24841H65.5862V4.04788H65.0247V3.44629H64.6236V4.04788H64.2627V4.22501C64.2711 4.28016 64.6236 4.23002 64.6236 4.24841V4.24673Z"></path>
<path fill="#4B5158" d="M85.0495 3.16518C85.1147 3.22366 85.1431 3.37573 85.1515 3.46263C85.1999 3.96562 85.1966 5.04012 85.1448 5.54312C85.1331 5.65174 85.113 5.84725 85.0011 5.88067C84.8607 5.92412 84.8022 5.80882 84.8289 6.04945H85.7915C85.8884 5.8272 85.5107 5.8907 85.5107 5.70855V2.88443C85.4673 2.8694 85.4222 2.92454 85.4105 2.92454H84.7487C84.6836 3.18189 84.9259 3.05154 85.0495 3.16518Z"></path>
<path fill="#4B5158" d="M82.1834 6.04765C82.1767 6.00922 82.1934 5.89893 82.1834 5.8889C82.17 5.87386 81.8843 5.91731 81.8308 5.74017C81.8041 5.65161 81.8024 4.66066 81.8241 4.54702C81.8442 4.44008 82.0564 4.25793 82.1633 4.24456C82.2669 4.23119 82.2035 4.35652 82.2436 4.44509C82.3288 4.63225 82.648 4.62891 82.6647 4.3465C82.6981 3.79337 82.0681 3.9822 81.8425 4.28634C81.7907 4.24122 81.8442 4.02732 81.8224 4.0056C81.774 3.95713 81.2526 4.07912 81.1406 4.0457C81.0972 4.33981 81.388 4.10586 81.4231 4.46347C81.4465 4.70411 81.4598 5.53296 81.4214 5.74686C81.3913 5.91731 81.164 5.86718 81.1423 5.8889C81.1373 5.89558 81.134 6.04097 81.1406 6.04598C81.1774 6.08274 82.048 6.01757 82.1834 6.04598V6.04765Z"></path>
<path fill="#4B5158" d="M63.7314 20.5763C63.6763 20.5646 63.6095 20.563 63.6212 20.4861C63.6596 20.2572 64.1526 20.5128 64.3631 20.1853C64.5519 19.8912 64.3046 19.7191 64.323 19.582C64.3431 19.4316 64.6221 19.5553 64.5453 19.3063C64.3481 19.2261 64.2094 19.4868 64.1576 19.5018C64.0907 19.5235 64.0205 19.4684 63.9637 19.4734C63.576 19.5068 63.3003 19.7475 63.4858 20.1435C63.5042 20.182 63.5811 20.2338 63.5811 20.2471C63.5811 20.2705 63.449 20.3491 63.429 20.4159C63.3839 20.5696 63.5058 20.6448 63.5058 20.7251C63.5058 20.7484 63.2218 20.837 63.3872 21.1228C63.5409 21.3918 64.4417 21.3801 64.5636 21.1077C64.6104 21.0041 64.6021 20.7869 64.5152 20.705C64.3765 20.5763 63.9303 20.6148 63.7314 20.5763ZM64.1626 19.7475C64.4066 20.0299 63.952 20.3892 63.7131 20.1368C63.4607 19.8695 63.9069 19.4517 64.1626 19.7475ZM63.5927 21.0576C63.5226 20.9908 63.5543 20.827 63.6496 20.7936C63.7515 20.7585 64.338 20.7668 64.3815 20.8922C64.4851 21.1996 63.7465 21.2063 63.5927 21.0576Z"></path>
<path fill="#4B5158" d="M56.6211 12.8643C56.5876 12.8409 56.3637 12.7373 56.347 12.7373H55.5649V14.4986H56.3871C56.4189 14.4986 56.6043 14.3883 56.6445 14.3566C57.0606 14.0207 57.0689 13.1634 56.6211 12.8643ZM55.8056 14.2998V12.9378C56.3437 12.8509 56.7414 13.0448 56.7297 13.638C56.7197 14.2112 56.3169 14.3666 55.8056 14.2998Z"></path>
<path fill="#4B5158" d="M64.1443 17.6632V16.6021C64.1443 16.5904 64.044 16.42 64.0223 16.4032C63.8251 16.2361 63.4441 16.3046 63.3806 16.582C63.1466 16.2445 62.8625 16.2061 62.5985 16.5419C62.5484 16.5119 62.5985 16.3615 62.5785 16.3414C62.5567 16.3197 62.3963 16.3431 62.3779 16.4016V17.6632H62.6186V16.7224C62.6186 16.5954 62.8759 16.4567 63.0179 16.5219C63.038 16.5319 63.1383 16.6338 63.1383 16.6422V17.6632H63.3789V16.7625C63.3789 16.5219 63.9404 16.3982 63.9404 16.6823V17.6632H64.1409H64.1443Z"></path>
<path fill="#4B5158" d="M66.3482 14.5001V13.439C66.3482 13.429 66.2613 13.2769 66.2395 13.2569C66.0323 13.073 65.663 13.1282 65.5861 13.419C65.3522 13.0814 65.0681 13.043 64.8041 13.3789C64.7523 13.3488 64.8041 13.1984 64.784 13.1783C64.7623 13.1566 64.6019 13.18 64.5835 13.2385V14.5001H64.8241V13.5593C64.8241 13.4323 65.0815 13.2936 65.2235 13.3588C65.2436 13.3688 65.3438 13.4708 65.3438 13.4791V14.5001H65.5845V13.5994C65.5845 13.546 65.7733 13.3488 65.8468 13.3387C65.9521 13.3237 66.1459 13.419 66.1459 13.5209V14.5018H66.3465L66.3482 14.5001Z"></path>
<path fill="#4B5158" d="M80.4587 13.417C80.2247 13.0794 79.9407 13.041 79.6766 13.3769C79.6265 13.3468 79.6766 13.1964 79.6566 13.1764C79.6349 13.1546 79.4744 13.178 79.4561 13.2365V14.4982H79.6967V13.5574C79.6967 13.3385 80.2582 13.1964 80.2582 13.5975V14.4982H80.4587V13.5975C80.4587 13.3568 81.0202 13.2332 81.0202 13.5173V14.4982H81.2207V13.397C81.2207 13.1346 80.4971 13.0243 80.4587 13.417Z"></path>
<path fill="#4B5158" d="M58.6113 4.22483C58.7416 4.27496 58.7968 4.36854 58.8118 4.50557C58.8369 4.71613 58.8453 5.5149 58.8102 5.70708C58.7634 5.96275 58.4576 5.78729 58.5311 6.04797H59.4936C59.5906 5.82739 59.2513 5.86416 59.2129 5.80734C59.1644 5.73381 59.2129 4.29167 59.2129 4.06441C59.2129 3.92237 58.5545 4.08446 58.4509 4.04435C58.4225 4.27329 58.481 4.17136 58.6113 4.22316V4.22483Z"></path>
<path fill="#4B5158" d="M69.9763 4.36709C70.0097 4.44061 70.0197 5.62039 69.9963 5.74907C69.9579 5.96464 69.6354 5.77915 69.7156 6.04986H70.6781C70.7667 5.82092 70.4408 5.89779 70.3974 5.74907V4.06629C70.3974 3.94932 69.7473 4.0947 69.6354 4.04624C69.5602 4.30191 69.8794 4.15319 69.9763 4.36709Z"></path>
<path fill="#4B5158" d="M64.383 10.7146V8.97168C64.2794 8.99842 63.6861 8.98505 63.6611 9.01179C63.656 9.0168 63.6544 9.15383 63.6661 9.1672C63.7346 9.24908 63.9802 9.08364 64.0237 9.54987C64.0437 9.76544 64.0554 10.4756 64.0137 10.6645C63.9585 10.9185 63.7212 10.8349 63.7012 10.8533C63.6911 10.8633 63.7078 10.9736 63.7012 11.0121H64.6637C64.7706 10.8065 64.383 10.8266 64.383 10.7113V10.7146Z"></path>
<path fill="#4B5158" d="M59.7243 13.6074C59.6474 13.1495 59.1127 12.9573 58.8319 13.3768C58.7801 13.3483 58.8319 13.1963 58.8119 13.1762C58.7885 13.1545 58.6113 13.1863 58.6113 13.2364V14.9392H58.852V14.3777C59.4953 14.8356 59.8295 14.229 59.7243 13.6074ZM59.2714 14.3376C58.6999 14.4446 58.7233 13.4252 59.1227 13.3433C59.6156 13.2431 59.6106 14.2758 59.2714 14.3376Z"></path>
<path fill="#4B5158" d="M73.2031 14.5003C73.2148 14.5103 73.3602 14.4919 73.4036 14.4986V12.7373H73.1647V13.2971C72.9341 13.1551 72.7686 13.0582 72.5213 13.2353C71.903 13.6798 72.4344 15.0634 73.1847 14.3399C73.2332 14.3582 73.1864 14.4819 73.2031 14.5003ZM72.9023 14.3382C72.3709 14.4401 72.3993 13.4392 72.7118 13.3456C73.3201 13.1634 73.2883 14.2647 72.9023 14.3382Z"></path>
<path fill="#4B5158" d="M77.05 13.2403C77.0416 13.0832 76.8394 12.7373 76.6723 12.7373H75.8101V14.4986H76.0507V13.7784H76.6723C76.8545 13.7784 77.0583 13.4174 77.05 13.2403ZM76.0507 13.5779V12.9378C76.3264 12.9428 76.7843 12.8443 76.811 13.2403C76.8394 13.6648 76.3298 13.5779 76.0507 13.5779Z"></path>
<path fill="#4B5158" d="M71.0189 15.9004H70.1968V17.6634H70.4374V16.9415H71.0189C71.2429 16.9415 71.3983 16.6457 71.4033 16.4418C71.4083 16.2279 71.2646 15.9004 71.0189 15.9004ZM70.4374 16.7426V16.1009C70.7649 16.1226 71.176 15.9722 71.1627 16.4418C71.151 16.8696 70.7382 16.7175 70.4374 16.7426Z"></path>
<path fill="#4B5158" d="M55.8056 16.8228H56.4874C56.4874 16.8228 56.4957 16.6624 56.4874 16.6624H55.8056V16.1009H56.6879V15.9004H55.5649V17.6634H56.728V17.4628H55.8056V16.8228Z"></path>
<path fill="#4B5158" d="M55.8056 19.9859H56.4874C56.4874 19.9859 56.4957 19.8255 56.4874 19.8255H55.8056V19.264H56.6879V19.0635H55.5649V20.8265H56.728V20.6259H55.8056V19.9859Z"></path>
<path fill="#4B5158" d="M60.8554 14.4997C60.8671 14.5098 61.0125 14.4914 61.0559 14.4981V13.5572C61.0559 13.0058 60.0048 12.9891 59.9747 13.5372C60.2137 13.6074 60.1736 13.3901 60.3641 13.3467C60.6315 13.2849 60.8671 13.34 60.8169 13.6575C60.5746 13.6659 60.1051 13.6809 59.9797 13.9232C59.6973 14.4697 60.4811 14.7704 60.7969 14.3393C60.9005 14.2942 60.8387 14.4814 60.8554 14.4997ZM60.1769 14.082C60.2003 13.8046 60.6147 13.8597 60.8169 13.858C60.9724 14.3376 60.1318 14.615 60.1769 14.082Z"></path>
<path fill="#4B5158" d="M64.2246 14.4982V13.5573C64.2246 13.0243 63.1668 12.9892 63.1417 13.5373C63.374 13.6192 63.3523 13.3869 63.491 13.3451C63.74 13.2716 64.0541 13.3351 63.9839 13.6576C63.7433 13.666 63.2721 13.681 63.1467 13.9233C62.8643 14.4697 63.6481 14.7705 63.9639 14.3394C64.0675 14.2943 64.0057 14.4814 64.024 14.4998C64.0341 14.5098 64.1795 14.4915 64.2246 14.4982ZM63.3439 14.0821C63.3673 13.8047 63.7817 13.8598 63.9839 13.8581C64.126 14.3427 63.2988 14.6135 63.3439 14.0821Z"></path>
<path fill="#4B5158" d="M67.1706 17.4626L67.1907 17.6631H67.3912V16.7223C67.3912 16.1792 66.3434 16.1742 66.3083 16.7023C66.5974 16.7507 66.5272 16.4516 66.8798 16.4717C67.1422 16.4867 67.1372 16.607 67.1907 16.8209C66.8966 16.8777 66.4504 16.7908 66.3133 17.1267C66.0777 17.7049 66.9016 17.9088 67.1706 17.4626ZM66.5172 17.2103C66.5891 16.9713 66.9985 17.0214 67.1907 17.0231C67.306 17.5595 66.3585 17.7367 66.5172 17.2103Z"></path>
<path fill="#4B5158" d="M60.6935 19.5279C60.4462 19.3976 59.8229 19.4929 59.8145 19.8655C60.0334 19.9357 60.0401 19.7268 60.1721 19.6834C60.4612 19.5864 60.7436 19.6834 60.6968 20.0259C60.3793 20.0092 59.873 19.9925 59.7978 20.3936C59.7209 20.8163 60.2323 20.9901 60.5515 20.7813C60.6367 20.7261 60.625 20.6509 60.6952 20.6275C60.6684 20.8815 60.7069 20.8314 60.9358 20.8264C60.8088 20.4855 61.0578 19.7235 60.6935 19.5279ZM60.0217 20.417C60.0702 20.1379 60.4863 20.183 60.6968 20.1864C60.8539 20.686 59.9332 20.9133 60.0217 20.417Z"></path>
<path fill="#4B5158" d="M75.9704 17.0213C76.0222 16.3679 75.1967 16.0053 74.8658 16.6186C74.4163 17.4525 75.5158 18.2128 75.9303 17.3021C75.6746 17.16 75.6963 17.4474 75.5409 17.4942C75.2167 17.5912 74.9694 17.3438 75.0078 17.0213H75.9704ZM75.7297 16.8626H75.0078C75.0931 16.3813 75.693 16.3546 75.7297 16.8626Z"></path>
<path fill="#4B5158" d="M63.1814 20.1868C63.2232 19.1725 61.9381 19.251 62.0166 20.2888C62.0701 20.9773 62.9023 21.0725 63.1814 20.486C62.8589 20.3122 62.9809 20.5595 62.8104 20.638C62.4745 20.7934 62.1971 20.5394 62.259 20.1868H63.1814ZM62.9407 20.0264H62.259C62.2723 19.5335 62.9558 19.5234 62.9407 20.0264Z"></path>
<path fill="#4B5158" d="M74.4763 14.3099C74.1388 14.4553 73.8664 14.208 73.9249 13.8587H74.8473C74.8841 12.7859 73.5171 12.973 73.6876 14.0359C73.7845 14.6441 74.6217 14.7126 74.8473 14.1578C74.6016 14.0024 74.6317 14.2414 74.4763 14.3099ZM74.6067 13.6983H73.9249C73.9533 13.2237 74.6334 13.1869 74.6067 13.6983Z"></path>
<path fill="#4B5158" d="M58.3304 13.8581C58.3505 13.5172 58.1717 13.1496 57.7907 13.1446C56.8332 13.1345 57.0069 14.9193 58.0363 14.4647C58.2502 14.3711 58.414 14.0587 58.155 14.1054C58.0865 14.1188 58.0597 14.2341 58.0079 14.2759C57.7155 14.5165 57.3111 14.2291 57.408 13.8581H58.3304ZM58.0898 13.6977H57.408C57.4214 13.2047 58.1048 13.1947 58.0898 13.6977Z"></path>
<path fill="#4B5158" d="M67.6166 14.096C67.5698 14.1026 67.4478 14.5137 67.0819 14.3065C66.9198 14.2163 66.8713 14.0341 66.8697 13.8587H67.8322C67.8322 13.4726 67.6768 13.1602 67.2507 13.1602C66.2798 13.1602 66.5806 14.9616 67.5398 14.4669C67.7269 14.37 67.9308 14.0508 67.6166 14.096ZM67.5916 13.6982H66.9098C66.888 13.2103 67.62 13.1952 67.5916 13.6982Z"></path>
<path fill="#4B5158" d="M85.2616 13.145C84.5063 13.2503 84.5732 14.5988 85.3703 14.5404C86.1473 14.4835 86.0755 13.0314 85.2616 13.145ZM85.1614 14.3081C84.899 14.1961 84.9024 13.4174 85.2199 13.3455C85.8783 13.1985 85.8181 14.5905 85.1614 14.3081Z"></path>
<path fill="#4B5158" d="M72.914 16.3102C72.1587 16.4155 72.2255 17.7624 73.0226 17.7039C73.7997 17.6488 73.7278 16.1949 72.914 16.3102ZM72.8137 17.4733C72.543 17.358 72.5697 16.5776 72.8722 16.5108C73.5306 16.3654 73.4755 17.7574 72.8137 17.4733Z"></path>
<path fill="#4B5158" d="M78.6359 14.5401C79.4046 14.4833 79.3795 13.0713 78.5256 13.1465C77.8271 13.2083 77.8187 14.6003 78.6359 14.5401ZM78.7077 14.3296C78.0945 14.4699 78.1529 13.4456 78.4838 13.3453C79.0436 13.1782 79.0787 14.246 78.7077 14.3296Z"></path>
<path fill="#4B5158" d="M61.5171 16.3233C60.7033 16.3367 60.7652 17.6451 61.4369 17.7053C62.2858 17.7805 62.346 16.3116 61.5171 16.3233ZM61.6893 17.473C61.1361 17.732 61.0459 16.838 61.2698 16.594C61.4286 16.4219 61.7444 16.5038 61.828 16.7127C61.9015 16.8931 61.8898 17.3794 61.6893 17.473Z"></path>
<path fill="#4B5158" d="M58.7516 17.7032C59.5203 17.6464 59.4952 16.2343 58.6413 16.3095C57.9428 16.3714 57.9344 17.765 58.7516 17.7032ZM58.5995 16.5101C59.1593 16.343 59.1928 17.4108 58.8235 17.4943C58.2085 17.633 58.2687 16.6087 58.5995 16.5101Z"></path>
<path fill="#4B5158" d="M82.0466 13.1465C81.3481 13.2083 81.3397 14.602 82.1569 14.5401C82.9256 14.4833 82.9005 13.0713 82.0466 13.1465ZM82.2287 14.3312C81.6138 14.4699 81.6739 13.4456 82.0048 13.347C82.5646 13.1799 82.598 14.2477 82.2287 14.3312Z"></path>
<path fill="#4B5158" d="M79.7335 16.6823C79.7335 16.4717 80.0476 16.4617 80.1947 16.5469C80.2682 16.5904 80.2966 16.7024 80.325 16.7057C80.3451 16.709 80.4938 16.6689 80.4988 16.6622C80.6843 16.3932 79.5212 16.0473 79.4945 16.684C79.4711 17.2455 80.3434 16.9681 80.3434 17.324C80.3434 17.5563 79.8705 17.5563 79.7385 17.4426C79.6081 17.3307 79.7535 17.207 79.4561 17.3039C79.5313 18.0024 80.945 17.705 80.4988 17.0834C80.2983 16.8043 79.7335 16.958 79.7335 16.6823Z"></path>
<path fill="#4B5158" d="M67.0201 19.4749C66.3884 19.5651 66.3283 20.6864 66.9165 20.8401C67.9108 21.0975 67.9308 19.3429 67.0201 19.4749ZM67.2858 20.6229C66.6976 20.9521 66.5438 19.7773 67.0184 19.6737C67.5432 19.5584 67.5682 20.4642 67.2858 20.6229Z"></path>
<path fill="#4B5158" d="M70.8184 13.1602C70.0029 13.1602 70.0581 14.5187 70.78 14.5405C71.5838 14.5672 71.6389 13.1602 70.8184 13.1602ZM70.5995 14.2781C70.4207 14.1494 70.4324 13.5813 70.5711 13.4309C70.6012 13.3974 70.6964 13.3456 70.7415 13.339C71.4267 13.237 71.2362 14.7343 70.5995 14.2781Z"></path>
<path fill="#4B5158" d="M78.6858 16.3111C77.9556 16.3596 77.9973 17.7081 78.7159 17.7065C79.5498 17.7048 79.5364 16.256 78.6858 16.3111ZM78.8362 17.5009C78.2497 17.6162 78.2664 16.5918 78.6457 16.51C79.2273 16.383 79.2039 17.4307 78.8362 17.5009Z"></path>
<path fill="#4B5158" d="M60.6551 17.6632V16.8427C60.6551 16.826 60.5966 16.582 60.5849 16.5519C60.4563 16.2394 60.0201 16.2562 59.833 16.5018C59.848 16.308 59.5723 16.308 59.5723 16.4015V17.6632H59.8129V16.8026C59.8129 16.7274 59.985 16.5285 60.0836 16.5085C60.1789 16.4884 60.4145 16.5603 60.4145 16.6422V17.6632H60.6551Z"></path>
<path fill="#4B5158" d="M57.0886 19.8471C57.0719 19.6365 57.4195 19.6282 57.5582 19.695C57.6869 19.7568 57.6384 19.929 57.8874 19.8254C57.8089 19.3625 56.9282 19.3675 56.8831 19.8053C56.8162 20.4487 57.742 20.1094 57.727 20.4888C57.717 20.7077 57.2975 20.7094 57.1505 20.6241C57.0335 20.5556 57.0719 20.4052 56.8463 20.4687C56.833 20.9801 57.8473 20.9784 57.9275 20.5673C58.0562 19.9039 57.1137 20.1679 57.0886 19.8488V19.8471Z"></path>
<path fill="#4B5158" d="M68.2047 19.9948C67.8688 19.8294 68.2648 19.5336 68.569 19.7107C68.711 19.7926 68.6057 19.9246 68.8731 19.8261C68.8129 19.3682 67.939 19.3732 67.8721 19.8093C67.7886 20.3591 68.5874 20.1786 68.6943 20.3875C68.843 20.675 68.3634 20.7619 68.1362 20.6232C68.0175 20.5513 68.0576 20.4059 67.832 20.4677C67.8387 20.9841 68.8614 20.9991 68.9149 20.5279C68.975 19.9915 68.4954 20.1385 68.2047 19.9948Z"></path>
<path fill="#4B5158" d="M87.0547 13.2166C86.804 13.0478 86.5801 13.1681 86.413 13.377L86.3929 13.1765H86.1924V14.4983H86.433V13.5976C86.433 13.3452 87.0346 13.2316 87.0346 13.5174V14.4983H87.2351V13.4372C87.2351 13.4054 87.0948 13.2433 87.0547 13.2166Z"></path>
<path fill="#4B5158" d="M69.1541 14.5002V13.4391C69.1541 13.4074 69.0137 13.2453 68.9736 13.2185C68.7229 13.0497 68.499 13.1701 68.3319 13.3789L68.3119 13.1784H68.1113V14.5002H68.352V13.5995C68.352 13.3472 68.9536 13.2336 68.9536 13.5193V14.5002H69.1541Z"></path>
<path fill="#4B5158" d="M74.5316 16.3462C74.4881 16.383 74.2375 17.3037 74.1857 17.3037C74.1172 17.1817 73.8932 16.3813 73.8381 16.3495C73.8097 16.3328 73.6092 16.3094 73.6442 16.4014C73.6944 16.8375 74.5282 17.9755 73.6442 17.9454C73.6092 18.303 74.0737 18.1309 74.174 17.8936L74.7271 16.3646C74.7271 16.3312 74.5483 16.3345 74.5316 16.3495V16.3462Z"></path>
<path fill="#4B5158" d="M69.1608 16.3479L68.7949 17.3037C68.7414 17.1851 68.5108 16.3746 68.4674 16.3479C68.4272 16.3228 68.327 16.3495 68.2718 16.3429C68.1398 16.4715 69.1993 18.0774 68.2718 17.9454C68.2133 18.1827 68.469 18.1794 68.6294 18.0824C68.8918 17.9237 69.1592 16.7255 69.3146 16.4047C69.3346 16.3061 69.2193 16.3429 69.1592 16.3495L69.1608 16.3479Z"></path>
<path fill="#4B5158" d="M57.5719 16.5208C57.8008 16.5977 57.6555 16.9252 57.9696 16.7832C57.6655 15.8323 56.6628 16.4239 56.9386 17.3129C57.1124 17.8744 57.866 17.8125 57.9646 17.2795C57.983 17.1809 57.8209 17.2377 57.7691 17.1842C57.7056 17.4215 57.6271 17.5585 57.3547 17.4967C56.9803 17.4098 57.0321 16.342 57.5686 16.5225L57.5719 16.5208Z"></path>
<path fill="#4B5158" d="M83.5889 13.3554C83.7577 13.4105 83.7209 13.596 83.7861 13.6411C83.8212 13.6645 83.9365 13.6244 83.9449 13.6127C84.0919 13.3838 83.37 12.8156 83.0191 13.3888C82.6765 13.9469 83.1143 14.856 83.7293 14.4583C83.8947 14.3513 84.0886 13.9787 83.8062 14.0272C83.7209 14.0422 83.7577 14.4065 83.3683 14.3363C83.0207 14.2745 83.0141 13.1632 83.5889 13.352V13.3554Z"></path>
<path fill="#4B5158" d="M65.7682 19.6673C65.9203 19.6389 66.0239 19.6807 66.1024 19.8127C66.201 19.9765 66.059 20.0216 66.3481 19.9464C66.186 19.171 65.2736 19.4234 65.2652 20.1687C65.2552 20.9474 66.1826 21.168 66.3481 20.3876C66.2996 20.4009 66.1643 20.3308 66.1475 20.3475C66.1342 20.3592 66.1308 20.5814 65.9871 20.6466C65.4106 20.9073 65.3688 19.7425 65.7682 19.6673Z"></path>
<path fill="#4B5158" d="M76.6322 16.502C76.7843 16.4736 76.8879 16.5153 76.9664 16.6474C77.065 16.8111 76.923 16.8562 77.2121 16.781C77.1469 16.1377 76.2428 16.1928 76.1693 16.8011C76.1275 17.1504 76.1827 17.6266 76.6005 17.6935C76.8996 17.7419 77.1436 17.5715 77.2071 17.2774C77.2271 17.1838 77.0466 17.2105 77.0166 17.2289C76.9948 17.2423 76.9564 17.4545 76.821 17.4946C76.2278 17.6701 76.2629 16.5722 76.6305 16.502H76.6322Z"></path>
<path fill="#4B5158" d="M65.7483 17.6855C65.9087 17.6421 66.0842 17.4482 66.1076 17.2845C66.121 17.1875 65.9472 17.2109 65.9138 17.231C65.8837 17.2494 65.862 17.4716 65.6848 17.5051C65.1467 17.607 65.1601 16.5743 65.5277 16.5041C65.6798 16.4757 65.7834 16.5174 65.862 16.6495C65.9605 16.8132 65.8185 16.8583 66.1076 16.7831C66.0692 16.2467 65.3489 16.1548 65.13 16.6277C64.9228 17.0773 65.1334 17.8543 65.7483 17.6855Z"></path>
<path fill="#4B5158" d="M77.7385 17.4379C77.7168 17.376 77.7185 16.6608 77.7318 16.5656C77.7402 16.5138 78.1011 16.6157 78.0126 16.3433C77.6616 16.3734 77.7268 16.3433 77.7318 16.0225H77.4912C77.4812 16.0809 77.5062 16.3299 77.4912 16.3433C77.4778 16.3567 77.1921 16.2982 77.2506 16.4837C77.2806 16.5756 77.4778 16.5321 77.4912 16.5438C77.528 16.5789 77.4277 17.3292 77.5547 17.5415C77.675 17.7437 78.1513 17.8222 78.0928 17.5047C77.9992 17.5281 77.7786 17.5565 77.7368 17.4395L77.7385 17.4379Z"></path>
<path fill="#4B5158" d="M61.5374 20.5675V19.7069H61.8181V19.5064C61.4338 19.5415 61.5741 19.4947 61.514 19.1855H61.3368C61.3301 19.4629 61.4254 19.5482 61.0962 19.5064V19.7069C61.1463 19.7153 61.3235 19.6936 61.3368 19.7069C61.3702 19.7403 61.3368 20.5174 61.3368 20.6477C61.3368 20.8332 61.7513 20.9051 61.8983 20.8683V20.6678C61.8014 20.6995 61.5374 20.7129 61.5374 20.5675Z"></path>
<path fill="#4B5158" d="M69.7957 14.2795V13.3788H70.0764V13.1783C69.6904 13.2134 69.8324 13.1666 69.7723 12.8574H69.5951C69.5884 13.1348 69.6837 13.22 69.3545 13.1783V13.3788C69.4046 13.3872 69.5818 13.3654 69.5951 13.3788C69.6285 13.4122 69.5951 14.1893 69.5951 14.3196C69.5951 14.5051 70.0096 14.577 70.1566 14.5402V14.3397C70.0914 14.3781 69.7957 14.3614 69.7957 14.2795Z"></path>
<path fill="#4B5158" d="M58.4506 20.5675C58.4139 20.4389 58.4506 19.8907 58.4506 19.7069C58.4506 19.6936 58.7247 19.737 58.7314 19.6835V19.5064C58.3788 19.5381 58.4456 19.5064 58.4506 19.1855H58.2501C58.2384 19.4362 58.3437 19.5532 58.0329 19.5064C57.9075 19.7671 58.2284 19.6852 58.2518 19.7069C58.2935 19.7454 58.1782 20.5659 58.3136 20.7463C58.4105 20.875 58.6662 20.88 58.8132 20.8683V20.6678C58.708 20.7146 58.4874 20.6862 58.4523 20.5675H58.4506Z"></path>
<path fill="#4B5158" d="M62.4195 13.3775C62.4646 13.4193 62.336 14.2298 62.4981 14.4303C62.595 14.549 62.8406 14.5473 62.981 14.5389V14.3384C62.8757 14.4186 62.6652 14.3551 62.6284 14.2298C62.6117 14.1713 62.59 13.4059 62.62 13.3759C62.6468 13.3508 62.9409 13.4427 62.9409 13.2756C62.9409 13.1085 62.6451 13.2021 62.62 13.1753C62.605 13.162 62.6301 12.913 62.62 12.8545H62.4195C62.4128 13.1319 62.5081 13.2154 62.1789 13.1753C62.1137 13.4494 62.3894 13.3475 62.4195 13.3759V13.3775Z"></path>
<path fill="#4B5158" d="M62.0954 13.2018C62.0336 13.0096 61.671 13.292 61.6376 13.4174C61.5841 13.3789 61.6409 13.2001 61.6175 13.1767C61.5941 13.155 61.417 13.1868 61.417 13.2369V14.4986H61.6576V13.6781C61.6576 13.3689 62.1706 13.4374 62.0954 13.2018Z"></path>
<path fill="#4B5158" d="M59.2328 19.7455C59.1793 19.7071 59.2361 19.5283 59.2127 19.5049C59.1893 19.4831 59.0122 19.5149 59.0122 19.565V20.8267H59.2528V20.0062C59.2528 19.697 59.7659 19.7656 59.6907 19.5299C59.6288 19.3378 59.2662 19.6202 59.2328 19.7455Z"></path>
<path fill="#4B5158" d="M77.5126 13.3776C77.4808 13.2172 77.4825 13.1537 77.292 13.1771V14.4989H77.4925V13.7185C77.4925 13.6734 77.6011 13.4762 77.6529 13.4394C77.8418 13.3041 77.9888 13.5096 77.932 13.1386C77.7432 13.127 77.6028 13.2239 77.5109 13.3793L77.5126 13.3776Z"></path>
<path fill="#4B5158" d="M71.9597 16.4398C71.9029 16.5016 71.9113 16.6069 71.8411 16.6219C71.826 16.4314 71.923 16.2978 71.6807 16.3412V17.663H71.8812V16.8425C71.8812 16.7072 72.1603 16.4732 72.3224 16.5417C72.3875 16.2209 72.1118 16.271 71.9597 16.4398Z"></path>
<path fill="#4B5158" d="M71.5002 3.80529C71.547 3.80195 72.2021 3.24715 72.2221 3.2037C72.3024 3.02991 72.177 2.87617 71.9915 2.93132C71.9163 2.95304 71.4986 3.55463 71.4618 3.64654C71.4367 3.71004 71.4468 3.80863 71.5002 3.80529Z"></path>
<path fill="#4B5158" d="M64.744 16.3418H64.5435V17.6636H64.744V16.3418Z"></path>
<path fill="#4B5158" d="M64.9847 19.5068H64.7842V20.8287H64.9847V19.5068Z"></path>
<path fill="#4B5158" d="M84.4295 13.1787H84.229V14.5005H84.4295V13.1787Z"></path>
<path fill="#4B5158" d="M70.2066 3.51985C70.5759 3.453 70.4456 2.85977 70.0646 2.9734C69.7922 3.05362 69.8557 3.58335 70.2066 3.51985Z"></path>
<path fill="#4B5158" d="M64.201 8.49214C64.5135 8.44702 64.5135 7.85045 64.0924 7.93735C63.7932 7.99917 63.8484 8.54227 64.201 8.49214Z"></path>
<path fill="#4B5158" d="M58.8369 3.47945C59.2947 3.74348 59.3783 2.82272 58.8803 2.97145C58.6781 3.0316 58.6213 3.35579 58.8369 3.47945Z"></path>
<path fill="#4B5158" d="M61.2968 16.0804C61.3703 16.2459 61.7713 15.9351 61.8967 15.9401L61.7964 15.7412C61.753 15.8264 61.2617 16.0052 61.2951 16.0804H61.2968Z"></path>
<path fill="#4B5158" d="M62.874 18.9388C62.8222 18.9605 62.4345 19.166 62.4195 19.1861C62.3677 19.2613 62.4846 19.3114 62.5799 19.288C62.6033 19.2813 62.9241 19.1376 62.9392 19.1243C63.016 19.0624 63.006 18.882 62.8723 18.9371L62.874 18.9388Z"></path>
<path fill="#4B5158" d="M85.111 12.9164C85.1879 13.0918 85.5772 12.7526 85.7126 12.776L85.6123 12.5771C85.5689 12.6624 85.0776 12.8412 85.111 12.9164Z"></path>
<path fill="#4B5158" d="M84.229 12.7373V12.9779C84.4412 13.003 84.4947 12.9512 84.4696 12.7373H84.229Z"></path>
<path fill="#4B5158" d="M64.7841 15.9004H64.5435V16.141C64.7574 16.1661 64.8092 16.1126 64.7841 15.9004Z"></path>
<path fill="#4B5158" d="M64.9847 19.0654H64.7842V19.3061H64.9847V19.0654Z"></path>
<path fill="#FEFEFE" d="M35.7594 13.6782C35.7811 13.6114 36.1404 13.593 36.249 13.5663C36.7219 13.446 37.1096 13.1518 37.5658 12.9914L37.5591 11.0396C37.5424 10.9895 37.1213 10.8692 37.016 10.8207C35.8296 10.2843 35.5271 9.20978 35.5588 7.98822C35.5939 6.6263 36.0518 4.96358 36.7871 3.80719C38.3278 1.38079 39.5494 3.52144 40.2011 5.19585L40.6322 6.60791C40.8578 5.5802 41.1954 4.51573 41.7886 3.63841C43.6352 0.911215 45.1959 5.01204 45.5034 6.56781L45.7023 5.86596C45.9513 5.03543 46.4526 3.83727 47.0458 3.20226C48.6935 1.4376 50.0086 4.9619 50.3028 6.15839C50.53 7.08751 50.6938 8.5213 50.3963 9.43203C50.1239 10.2626 49.387 10.9043 48.513 11.0145L48.5097 12.9898C49.0628 13.212 49.5692 13.6314 50.1958 13.6164V14.7778C49.4823 14.7795 48.9642 14.208 48.2874 14.101C46.9439 13.8888 46.4041 14.8848 45.206 14.7778C44.3955 14.706 44.0128 14.0676 43.0469 14.0726C42.0811 14.0776 41.6533 14.7076 40.8344 14.7778C39.5561 14.8881 39.0497 13.7718 37.5274 14.1578C36.9425 14.3066 36.4345 14.8296 35.7627 14.7778V13.6766L35.7594 13.6782Z"></path>
<path fill="#FEFEFE" d="M50.1125 15.9801L49.8702 17.0596C49.3705 17.0145 49.0213 16.6535 48.5383 16.5299C47.2917 16.2124 47.0761 16.707 46.0835 17.0229C44.6798 17.469 44.2888 16.4313 43.0706 16.4246C42.1147 16.4196 41.6 17.0763 40.7494 17.1415C39.6565 17.2234 39.0917 16.2542 37.7465 16.4647C37.3488 16.5282 36.3461 17.1214 36.1373 17.0897C36.037 17.0747 35.8298 16.1338 35.8381 15.9801C36.6586 15.9617 37.1499 15.3534 37.9821 15.2966C39.4543 15.1964 39.9189 16.5115 41.5866 15.7746C42.2801 15.4671 42.4472 15.2281 43.3145 15.3C43.993 15.3551 44.3757 15.833 45.0174 15.9617C46.4277 16.2475 47.0694 14.822 48.7071 15.4403C49.1633 15.6125 49.5777 15.9901 50.1108 15.9801H50.1125Z"></path>
<path fill="#FEFEFE" d="M49.3487 18.1076C49.4156 18.1995 48.9209 18.8746 48.8441 18.9883C48.6536 18.9482 48.4781 18.8613 48.2843 18.8295C46.9892 18.619 46.5229 19.4745 45.4835 19.508C44.5678 19.538 44.0381 18.7944 43.0722 18.7894C41.6735 18.7811 41.2942 20.0126 39.6331 19.2607C39.4543 19.1788 39.2822 19.0417 39.0867 18.9665C38.4801 18.7326 37.7398 18.7543 37.1482 19.02C37.0797 19.0066 36.6018 18.258 36.6001 18.1661C37.2017 17.8085 37.7465 17.5996 38.465 17.6648C39.2254 17.7333 39.832 18.3666 40.5956 18.38C41.3593 18.3934 41.9993 17.7266 42.7547 17.6614C44.3506 17.5244 44.6781 18.8863 46.4394 18.0993C47.3117 17.7099 47.8314 17.4191 48.8274 17.8452C48.8942 17.8737 49.3304 18.0842 49.3471 18.1076H49.3487Z"></path>
<path fill="#4B5158" d="M42.4886 11.0207C42.4686 11.2697 42.5505 12.9174 42.4536 12.9976C42.4001 13.0411 42.1695 13.0962 42.0776 13.143C41.2754 13.5541 40.8243 13.8148 39.8968 13.509C39.4874 13.3736 39.1582 13.0678 38.7271 13.016V11.0174C39.6344 10.877 40.3296 10.2236 40.6304 9.37305C40.9078 10.2186 41.6297 10.8202 42.4886 11.0207Z"></path>
<path fill="#4B5158" d="M47.38 11.0207L47.3617 12.9826C46.5077 13.2466 45.983 13.7964 45.0171 13.6009C44.4857 13.4939 44.1315 13.138 43.6201 13.0143V11.0174C44.5075 10.877 45.2594 10.2487 45.5001 9.37305L45.8443 10.0097C46.217 10.5478 46.7601 10.8469 47.3784 11.0207H47.38Z"></path>
</g>
<defs>
<clipPath id="clip0_2915_4043">
<rect fill="white" height="24" width="87.2352"></rect>
</clipPath>
</defs>
</svg>
